<svg xmlns="http://www.w3.org/2000/svg" width="890.636" height="443.381" viewBox="0 0 890.636 443.381">
  <g id="グループ_7358" data-name="グループ 7358" transform="translate(-958.723 841.5)">
    <path id="パス_11863" data-name="パス 11863" d="M44.186,145.261c1.657-5.523,1.933-6.352,2.762-6.352,1.1,0,1.657.552,4.419,2.762,2.485,1.933,8.561,3.314,13.808,3.314,12.151,0,24.854-5.247,29.273-8.561,16.846-12.7,36.453-34.244,47.776-55.508,9.113-17.122,12.427-24.3,12.427-37.282,0-11.6-3.59-16.017-9.942-21.264a26.667,26.667,0,0,0-17.122-6.352c-1.933,0-3.866-.276-5.8-.276-37.006,0-67.936,21.264-89.2,35.349-4.142,2.762-9.942,6.628-9.942,11.046a6.907,6.907,0,0,0,1.1,3.59c3.314,3.314,3.314,5.523,8.561,8.837,2.762,1.657,3.314,2.209,3.314,3.038a13.461,13.461,0,0,1-1.1,3.59L28.168,99.418c-.828,2.209-1.1,2.762-3.038,3.314a22.392,22.392,0,0,0-5.8,2.762c-1.1.828-3.59.552-3.59,3.59s2.209,5.8,4.142,7.733c1.657,1.657,1.933,1.933,1.933,2.762,0,.552-.276,1.657-1.381,5.247-2.485,8.009-7.733,20.16-8.561,27.892a22.143,22.143,0,0,1-1.381,5.8C8.285,164.04,6.628,169.011,1.1,192.76A40.333,40.333,0,0,0,0,198.284c0,5.247,8.009,6.076,11.323,9.389a8.978,8.978,0,0,0,6.9,2.485c3.866,0,7.733-1.381,9.113-2.485,1.933-1.657,2.485-2.485,2.485-3.866C29.825,198.56,37.282,167.077,44.186,145.261Zm72.63-104.389a22.67,22.67,0,0,1,5.523-1.1c1.381,0,1.933,0,1.933,1.657,0,5.247-4.695,19.055-12.7,33.968-8.837,16.294-23.2,32.863-37.282,43.357-4.419,3.314-6.352,4.142-7.456,4.142-2.485,0-9.113-5.247-9.666-5.8a2.692,2.692,0,0,1-1.1-2.485,9.512,9.512,0,0,1,.276-2.485c4.419-17.4,12.7-35.9,19.055-54.128C86.715,46.947,97.485,46.671,116.816,40.872Zm39.491,143.88c-1.1,0-2.485-1.1-2.485-6.076,0-17.122,5.523-25.407,10.218-37.558,16.293-42.253,44.186-78.43,69.04-117.921a18.3,18.3,0,0,0,3.038-9.942c0-3.038-1.1-5.523-2.485-8.561C232.528,2.209,227.557,0,222.034,0c-3.038,0-5.8.276-9.389.276-12.98,0-15.741,19.055-18.779,24.026-20.712,35.072-44.462,78.43-56.613,109.084-5.247,13.532-11.323,27.064-11.323,41.977,0,8.561,1.1,12.7,6.628,18.5,4.971,5.247,12.7,9.942,22.921,12.151a30.429,30.429,0,0,0,4.971.552c20.712,0,40.043-29.825,46.119-36.177,2.485-2.485,5.247-4.142,5.247-8.009,0-6.352-9.942-8.837-13.808-8.837-14.36,0-23.75,19.884-39.491,30.378A4.407,4.407,0,0,1,156.307,184.752Zm109.636-17.4c.552,0,.552.276.552.828a103.464,103.464,0,0,0-.552,11.6c0,2.209.276,11.046,4.142,19.055,2.209,4.419,9.666,7.733,16.017,7.733,3.038,0,3.866-.828,6.076-1.1,4.971-.552,7.456-2.762,7.456-5.247a6.174,6.174,0,0,0-.828-2.762c-4.142-6.076-5.247-12.98-5.247-19.884,0-8.285,1.933-16.57,3.59-23.2,5.247-20.436,19.331-40.6,31.482-56.613a6.9,6.9,0,0,0,1.1-3.866c0-3.59-3.314-5.8-9.942-7.456-3.314-.828-4.142-1.933-4.695-3.038a25.181,25.181,0,0,0-4.695-6.352c-5.523-5.523-12.7-9.389-20.436-9.389a25.668,25.668,0,0,0-7.456,1.1C266.219,73.183,252.135,80.639,238.6,90.3c-38.11,27.616-56.061,66.555-56.061,82.848a20.365,20.365,0,0,0,7.18,16.017,141.87,141.87,0,0,0,13.532,10.218c3.866,2.485,6.628,3.314,9.113,3.314,6.628,0,21.541-5.247,38.939-21.817l11.6-11.046C264.838,167.906,265.391,167.354,265.943,167.354ZM294.388,89.2a2.318,2.318,0,0,1,2.486,2.485A5.343,5.343,0,0,1,295.216,95a50.928,50.928,0,0,0-7.733,9.942c-13.532,25.959-43.633,45.29-66.831,67.383-4.971,4.695-9.666,6.628-10.77,6.628-1.381,0-1.657-1.933-1.657-3.866,0-10.77,18.5-35.072,20.16-37.558,15.189-18.5,35.349-33.415,60.479-46.4A13.264,13.264,0,0,1,294.388,89.2Zm54.4,80.915c-.552,0-.828-.276-.828-1.1,0-3.314,1.381-8.837,3.59-15.741,6.9-21.264,9.666-34.8,19.055-55.232,1.657-3.59,4.971-6.628,6.9-10.218a21.128,21.128,0,0,0,3.038-9.942,9.678,9.678,0,0,0-3.866-7.732c-3.59-2.485-8.009-2.762-12.7-3.59a14.593,14.593,0,0,0-3.314-.276c-6.076,0-10.77,5.247-11.875,9.113-4.695,16.846-12.151,32.587-17.674,48.052-1.657,4.695-10.77,32.311-10.77,48.052,0,3.038.552,7.456,2.485,9.666,6.9,8.009,17.4,12.7,30.654,12.7,2.762,0,11.046-4.695,17.674-9.942,4.142-3.314,6.352-4.971,7.18-4.971.552,0,.828.276.828,1.1a37.917,37.917,0,0,1-1.381,4.971c-6.9,21.817-15.465,48.881-17.122,57.165a518.538,518.538,0,0,0-23.2,46.4c-1.1,2.485-5.247,12.151-5.247,20.16,0,4.419,1.1,8.837,4.971,11.323a16,16,0,0,0,8.837,2.485,84.385,84.385,0,0,0,9.666-.829c14.637-1.657,16.57-21.264,18.779-32.311,5.247-25.683,14.084-51.918,32.311-76.221a11.227,11.227,0,0,0,2.209-6.076c0-3.866-3.866-5.523-6.076-6.076-1.381-.276-1.657-.828-1.657-1.381s.276-1.657,2.209-7.18l14.913-40.872c5.523-15.465,9.389-24.578,16.294-34.8l6.628-9.666c3.59-5.247,5.247-9.942,5.247-13.808a11.039,11.039,0,0,0-1.933-5.8c-2.485-4.142-5.523-4.419-9.389-4.695-5.247-.276-7.456-2.762-11.046-2.762-6.352,0-9.113,6.9-9.942,9.389-12.7,34.244-25.959,42.529-34.52,53.023-4.142,4.971-6.628,6.9-9.942,10.77-9.666,11.323-16.017,14.36-17.674,15.465A6.7,6.7,0,0,1,348.791,170.115ZM512.831,29.273c-2.762-1.1-2.762-3.038-7.733-4.419-2.209-.552-3.59-2.762-8.009-2.762-10.218,0-12.98,16.017-13.808,22.921-2.485,21.264-11.875,47.5-18.227,73.459-1.1,4.695-1.1,6.9-2.485,11.6a21.886,21.886,0,0,0-1.1,4.695c0,5.523,6.352,5.8,7.456,12.427.276,1.381,1.657,3.314,4.419,4.695a13.5,13.5,0,0,0,5.247,1.381,7.46,7.46,0,0,0,6.628-4.695c11.875-27.616,18.779-54.956,27.616-85.058,1.933-6.628,8.285-15.465,8.285-23.474C521.116,35.9,519.735,32.035,512.831,29.273ZM471.407,175.638c-7.456-.828-9.389-5.8-18.227-5.8-7.456,0-6.628,4.695-8.009,7.456a18.062,18.062,0,0,0-2.485,9.666,21.917,21.917,0,0,0,5.523,14.36c2.762,3.038,6.076,3.59,9.666,3.59,2.485,0,5.523-.276,8.561-.276,5.8,0,8.837-5.247,10.77-10.77a41.192,41.192,0,0,0,2.209-9.942C479.416,180.057,477.206,176.191,471.407,175.638Z" transform="matrix(0.978, -0.208, 0.208, 0.978, 958.723, -733.154)" fill="#fff"/>
    <path id="パス_11864" data-name="パス 11864" d="M52.194,184.752c-8.561,2.485-12.151,3.314-16.017,3.59-1.381,0-1.657-1.1-1.657-2.485,0-1.933,1.1-5.523,2.209-8.561,11.6-32.035,22.093-59.1,35.625-88.648,3.314-7.18,5.8-10.494,7.456-14.913,3.866-10.494,7.733-18.227,13.256-22.921C95.552,48.6,95,47.776,95.552,45.29c.276-1.657,3.314-6.352,3.314-10.218,0-3.59-2.485-7.18-11.046-9.389-3.038-.828-4.142-3.59-10.494-3.59-4.419,0-8.561,1.933-9.389,3.866-20.16,44.462-43.91,89.476-59.927,136.147a60.333,60.333,0,0,0-2.485,9.666C4.695,176.743,0,185.028,0,191.656a7.538,7.538,0,0,0,1.381,4.971c4.142,5.8,12.7,17.4,26.511,17.4,30.378,0,55.508-14.36,80.915-20.436,6.9-1.657,14.637.276,17.4-3.866a6.34,6.34,0,0,0,1.1-3.866c0-1.657-1.381-4.419-1.381-5.247,0-4.971-13.532-12.98-23.2-12.98a12.9,12.9,0,0,0-4.695.828A386.735,386.735,0,0,1,52.194,184.752ZM165.42,174.81c-8.837,6.352-13.256,8.837-15.741,8.837-2.209,0-2.209-2.209-2.209-5.523,0-9.389,5.247-24.026,6.352-26.788,3.866-9.666,11.6-28.168,16.017-38.386,2.762-6.352,17.674-22.369,17.674-33.415,0-2.762-1.381-5.8-3.038-6.9-4.419-3.038-9.389-3.314-12.7-3.314-6.352,0-12.7,1.933-15.741,8.285-9.942,20.712-17.674,40.043-26.235,59.927-1.657,3.866-2.762,8.285-4.695,13.532-2.485,7.18-4.419,14.637-4.419,22.369A37.725,37.725,0,0,0,130.9,199.941c5.8,6.628,12.151,8.837,18.5,8.837,11.6,0,23.2-9.113,27.892-13.256l11.323-10.494c4.142-3.866,4.419-6.352,4.419-8.561,0-3.866-3.038-8.009-12.98-8.009C173.153,168.458,168.734,172.6,165.42,174.81ZM195.8,10.494c-6.628,0-12.427,1.657-15.465,5.247-2.485,3.038-3.59,7.456-3.59,11.875a20.223,20.223,0,0,0,2.209,9.942c1.381,2.762,6.9,7.456,15.465,7.456,8.837,0,16.293-10.77,19.331-13.808,1.1-1.1,1.657-3.59,1.657-5.8a14.025,14.025,0,0,0-3.59-9.666C208.225,12.151,200.769,10.494,195.8,10.494Zm93.619,78.982c-9.666,0-18.227,2.485-26.235,5.8-8.561,3.59-17.4,6.628-21.264,6.628-.552,0-.828-.276-.828-1.1,0-1.1,3.866-8.285,5.523-12.427a54.285,54.285,0,0,0,3.038-8.561c4.695-17.122,21.541-29.825,29.273-46.119a24.052,24.052,0,0,0,1.381-5.247c.828-5.8,8.009-9.389,8.009-15.465,0-6.352-7.456-12.98-16.017-12.98C265.115,0,258.211,3.314,256,6.9,241.089,30.93,231.423,53.023,212.368,98.59c-.276.828-1.381,2.762-3.314,2.762-3.59,0-7.456-1.933-10.494-3.038a18.566,18.566,0,0,0-4.971-.828c-4.971,0-6.352,3.314-6.352,6.628a23.471,23.471,0,0,0,1.381,6.9c1.933,6.9,12.7,13.256,12.7,17.674,0,2.209-.276,4.971-9.389,32.311-5.247,15.741-10.494,31.759-11.875,38.939-3.59,19.331-10.218,27.34-10.218,41.148,0,8.837,1.933,10.494,4.419,12.427,3.314,2.762,5.523,3.314,8.009,3.314,3.866,0,7.18-1.657,11.046-3.038,4.419-1.657,8.285-5.523,8.561-8.837,3.314-40.6,17.674-76.773,29.549-112.121,1.933-5.8,14.637-8.009,19.331-10.218a22.123,22.123,0,0,1,5.8-2.209c11.6-1.933,24.3-9.389,35.9-14.084,7.732-3.038,10.494-5.8,10.494-8.837C302.949,93.619,297.978,89.476,289.417,89.476Zm67.107,88.372c8.285-7.733,12.98-13.808,19.331-19.331,1.933-1.933,1.933-2.762,1.933-8.009,0-4.142-4.695-8.009-10.218-8.009a13.372,13.372,0,0,0-7.18,2.209c-14.084,8.285-25.959,22.921-43.081,32.863-3.314,1.933-13.532,9.113-21.817,9.113a11.423,11.423,0,0,1-5.247-1.381c-2.485-1.1-4.971-6.352-4.971-8.009,0-1.381.276-1.657,3.038-3.314,24.3-14.637,44.186-35.625,61.308-56.613,6.352-7.732,14.637-22.921,14.637-33.968,0-7.18-2.485-15.465-11.046-18.5a57.01,57.01,0,0,0-18.5-3.314,43.455,43.455,0,0,0-31.482,12.98c-20.436,21.817-38.663,45.567-46.671,73.459a40.137,40.137,0,0,0-1.657,11.323,59.717,59.717,0,0,0,3.59,19.331c3.038,8.837,8.009,16.57,14.913,20.16,12.7,6.628,21.817,10.218,30.1,10.218a22.74,22.74,0,0,0,12.151-3.038C336.64,194.141,348.239,185.58,356.524,177.848ZM334.431,86.438c0,2.485-.828,4.142-4.142,9.389s-1.933,5.247-6.076,10.77c-8.009,10.77-17.95,21.541-30.93,33.415-3.59,3.314-4.142,3.314-4.695,3.314a.882.882,0,0,1-.828-.828c0-.828.276-1.933,3.038-7.733,8.561-17.95,19.055-29.825,30.654-41.424,6.352-6.352,10.218-8.561,11.6-8.561C333.879,84.781,334.431,85.058,334.431,86.438Z" transform="matrix(0.978, -0.208, 0.208, 0.978, 1426.428, -649.336)" fill="#fff"/>
    <path id="パス_13226" data-name="パス 13226" d="M21.048-16.656a.92.92,0,0,0,.984-.936.915.915,0,0,0-.984-.912H15.792v-.528c0-.552-.552-.84-1.1-.84s-1.1.288-1.1.84v.528h-3.24v-.528c0-.552-.552-.84-1.08-.84-.552,0-1.1.288-1.1.84v.528H3.072a.923.923,0,0,0-1.008.912.927.927,0,0,0,1.008.936H8.16v.192c0,.576.552.864,1.08.864.552,0,1.1-.288,1.1-.864v-.192h3.24v.192c0,.576.552.864,1.1.864s1.1-.288,1.1-.864v-.192Zm.456,10.1a.881.881,0,0,0,.912-.912A.906.906,0,0,0,21.48-8.4L12-8.376l.576-.648a.361.361,0,0,0,.1-.264c1.416,0,2.808-.024,4.056-.072,2.208-.072,2.28-1.392,2.28-3.24,0-1.44-.168-2.784-2.16-2.856-1.368-.048-3.072-.072-4.728-.072-1.68,0-3.288.024-4.464.072-2.424.1-2.424,1.392-2.424,3.024,0,3.072.336,3.12,5.16,3.12q-.468.5-.936.936L2.568-8.4a.912.912,0,0,0-.936.96.849.849,0,0,0,.912.888h.024l4.752-.1a21.051,21.051,0,0,1-5.04,2.52.976.976,0,0,0-.72.96A1.049,1.049,0,0,0,2.616-2.112a14.179,14.179,0,0,0,3.768-1.7c0,.072-.024.168-.024.264,0,.336-.024.816-.024,1.32,0,2.184,0,3.432,2.352,3.528,1.176.048,2.52.072,3.864.072,1.056,0,2.136-.024,3.12-.072,2.184-.12,2.232-1.608,2.232-3.48,0-.5-.024-1.032-.048-1.416a10.871,10.871,0,0,0,3.456,1.3,1.193,1.193,0,0,0,1.224-1.2.988.988,0,0,0-.864-.984,15.229,15.229,0,0,1-5.352-2.16l5.16.1ZM7.32-13.056v-.168c.048-.84.1-.84,4.968-.84,4.344,0,4.488,0,4.56.768,0,.072.024.144.024.24Zm9.552,1.272c0,.1-.024.192-.024.288-.024.5-.384.7-.912.7-1.008.024-2.184.024-3.36.024-1.584,0-3.168,0-4.3-.024-.7,0-.912-.12-.96-.672,0-.1-.024-.192-.024-.312ZM13.584-6.672c.384.36.792.72,1.224,1.056-.96-.024-2.016-.048-3.024-.048-.984,0-1.944.024-2.736.048.432-.336.864-.7,1.272-1.056ZM8.3-2.9V-3.24c.048-.864.384-.864,4.224-.864,2.712,0,3.264,0,3.336.792,0,.12.024.24.024.408ZM15.888-1.56c0,.192-.024.384-.024.528-.024.528-.432.744-.936.744-.792,0-1.8.024-2.808.024S10.128-.288,9.312-.288c-.648,0-.96-.144-1.008-.72,0-.144-.024-.336-.024-.552ZM37.08-14.184a1.562,1.562,0,0,0,1.512-1.68,2.564,2.564,0,0,0-1.368-1.752c-.7-.456-1.512-.816-1.944-1.128-1.2-.864-2.784.408-1.752,1.536a8.4,8.4,0,0,0,1.7,1.128c.168.12-.072.24-.192.312-1.008.552-.144,2.088,1.008,1.8C36.432-14.064,36.768-14.136,37.08-14.184ZM40.248-.144c8.112-4.968,3-11.448-4.248-8.3-1.128.48-2.256,1.1-2.736,1.368-.216.12-.336.12-.408-.072A6.3,6.3,0,0,1,33-9.648c.192-1.152.456-2.5.576-3.5.216-1.728-1.968-1.776-2.208-.24-.192,1.224-.5,3.072-.7,4.824a8.26,8.26,0,0,0,.192,4.08c.432.84,1.392,1.512,2.808.144a15.155,15.155,0,0,1,3.216-2.064c2.544-1.152,4.3-.792,4.8.168s-.216,2.616-2.856,4.152a11.255,11.255,0,0,1-3.216,1.032c-2.04.408-1.416,2.784.528,2.4A12.994,12.994,0,0,0,40.248-.144ZM68.5-2.208A1.334,1.334,0,1,0,66.84-4.3c-4.176,3.288-8.448,3.528-8.592.024a66.557,66.557,0,0,1,.432-7.056c.12-1.608.288-3.888.336-5.4.048-1.584-2.664-1.728-2.616.048.048,1.488-.12,3.84-.192,5.4-.12,2.544-.384,4.584-.288,7.1C56.136,2.3,63.816,1.608,68.5-2.208ZM85.8-16.32a4.538,4.538,0,0,0,.192-1.392c-.048-1.176-2.3-1.32-2.4.12a10.012,10.012,0,0,1-.264,2.016c-.12.024-.264.024-.36.048a3.69,3.69,0,0,1-2.256-.048c-1.68-1.128-2.856,1.128-1.128,1.992a4.847,4.847,0,0,0,2.976.264,20.008,20.008,0,0,1-1.128,2.136,11.979,11.979,0,0,1-1.944,2.256c-1.44,1.3.312,2.664,1.632,1.488a5.257,5.257,0,0,0,.552-.624l.1-.1c1.56-1.8,3.408-2.04,4.056-.024-.456.264-.84.528-1.176.744-4.344,2.856-4.92,6.1-1.68,7.92,1.872,1.056,5.136.7,6.552.336,2.208-.576,1.536-3.168-.576-2.52-1.128.36-3.48.84-4.752.192-1.344-.672-1.7-2.112,1.272-4.032.192-.12.408-.24.624-.36,0,.5-.024,1.056-.048,1.56-.072.936.48,1.392,1.08,1.368a1.419,1.419,0,0,0,1.272-1.488,19.177,19.177,0,0,0-.048-2.64c.96-.456,2.04-.936,3.048-1.32,1.272-.48,1.824-.6,2.592-.984a1.279,1.279,0,1,0-1.344-2.16,18.431,18.431,0,0,1-1.872.888c-.936.408-1.944.912-2.928,1.416a3.5,3.5,0,0,0-4.032-2.088,24.485,24.485,0,0,0,1.152-2.424,13.5,13.5,0,0,0,2.64-.792c1.776-.888.48-2.88-.84-2.088a8.442,8.442,0,0,1-1.008.432Zm15.984,18.1a1.327,1.327,0,0,0,1.3-1.32c0-1.632-3.84-3.744-4.68-3.744a1.068,1.068,0,0,0-1.128,1.056,1.079,1.079,0,0,0,.648.96,9.16,9.16,0,0,1,2.952,2.52A1.092,1.092,0,0,0,101.784,1.776ZM141.7-15.7a1.16,1.16,0,0,0,.456-.888,1.19,1.19,0,0,0-1.128-1.2,1.188,1.188,0,0,0-.792.36,11.3,11.3,0,0,1-2.64,1.848.8.8,0,0,0-.5.744,1.1,1.1,0,0,0,1.056,1.08C139.032-13.752,141.7-15.7,141.7-15.7Zm-.312,6.912a1.149,1.149,0,0,0,1.1-1.176,1.365,1.365,0,0,0-.552-1.056c-.36-.264-2.424-1.608-3.528-1.608a1.074,1.074,0,0,0-1.128.984.906.906,0,0,0,.672.84,10.007,10.007,0,0,1,2.616,1.68A1.3,1.3,0,0,0,141.384-8.784Zm-7.992-8.424a5.333,5.333,0,0,0,.384-1.392,1.132,1.132,0,0,0-1.224-1.008,1.084,1.084,0,0,0-1.128.912c-.072.456-.192,1.056-.312,1.512-.312,0-.576.024-.768.024a1.825,1.825,0,0,0-1.92,1.8c-.024.576-.024,1.464-.024,2.376,0,.888,0,1.8.024,2.4.072,1.872,1.872,1.9,3.6,1.9.984,0,2.088-.048,2.616-.1a1.934,1.934,0,0,0,1.92-1.92c.024-.456.048-1.032.048-1.656,0-1.056-.048-2.208-.072-3.072C136.488-17.208,134.568-17.208,133.392-17.208Zm-6.864,3.288a1.174,1.174,0,0,0,1.08-1.224,1.228,1.228,0,0,0-.408-.912s-2.184-1.752-3.192-1.752a1.2,1.2,0,0,0-1.152,1.128.824.824,0,0,0,.5.744,14.355,14.355,0,0,1,2.424,1.7A1.12,1.12,0,0,0,126.528-13.92Zm15.1,9a.968.968,0,0,0,1.008-1.008A.975.975,0,0,0,141.6-6.936h-8.016v-.72a1.028,1.028,0,0,0-1.128-1.008,1.016,1.016,0,0,0-1.128,1.056l.024.672h-7.92A.975.975,0,0,0,122.4-5.928a.968.968,0,0,0,1.008,1.008h.024l6.792-.144a24.038,24.038,0,0,1-7.392,4.272,1.078,1.078,0,0,0-.792.96,1.153,1.153,0,0,0,1.2,1.08c.84,0,5.352-2.328,8.136-4.8L131.328.864V.888c0,.6.552.912,1.128.912a1.014,1.014,0,0,0,1.128-.912V.864L133.536-3.6c3.072,2.592,7.128,4.68,7.992,4.68a1.417,1.417,0,0,0,1.416-1.3.985.985,0,0,0-.744-.936,27.268,27.268,0,0,1-7.608-3.912l7.008.144Zm-14.3-5.616a1.05,1.05,0,0,0,.456-.864.988.988,0,0,0-.912-1.032,1,1,0,0,0-.48.144,11.518,11.518,0,0,1-3.48,1.536,1.027,1.027,0,0,0-.744.984,1.11,1.11,0,0,0,1.1,1.152A11.686,11.686,0,0,0,127.32-10.536Zm3.024-3.336c0-1.368,0-1.7.744-1.752.24-.024.84-.024,1.44-.024,1.992,0,2.016.072,2.04.624,0,.312.024.72.024,1.152Zm4.248,1.656c0,1.392,0,1.824-.648,1.872-.24.024-.816.024-1.416.024-1.56,0-2.112,0-2.16-.648-.024-.288-.024-.72-.024-1.248ZM164.5-2.208A1.334,1.334,0,1,0,162.84-4.3c-4.176,3.288-8.448,3.528-8.592.024a66.559,66.559,0,0,1,.432-7.056c.12-1.608.288-3.888.336-5.4.048-1.584-2.664-1.728-2.616.048.048,1.488-.12,3.84-.192,5.4-.12,2.544-.384,4.584-.288,7.1C152.136,2.3,159.816,1.608,164.5-2.208ZM190.32-9.864a1.191,1.191,0,0,0,.432-1.656,6.1,6.1,0,0,0-4.488-2.592c-1.728-.12-1.824,2.088-.36,2.136a3.763,3.763,0,0,1,2.76,1.752A1.161,1.161,0,0,0,190.32-9.864ZM175.944-4.416c-.72,2.184-.264,3.768,1.248,4.68,1.8,1.08,5.208,1.056,7.248.384,3.312-1.1,4.08-3.384,3.36-6.768-.384-1.872-2.784-1.32-2.424.24.528,2.28.216,3.7-1.608,4.32-1.7.576-4.32.6-5.328-.024-.888-.552-.744-1.608-.288-2.688.384-.888.96-1.92,1.224-2.664a2.663,2.663,0,0,0-.072-2.208c.024-.5.048-1.008.072-1.344.048-.888.072-1.656.12-2.424a11.362,11.362,0,0,0,1.848-.744c1.584-.912.312-2.832-.912-2.016a4.477,4.477,0,0,1-.672.384,12.422,12.422,0,0,0,.024-1.608c-.072-1.608-2.736-1.728-2.544.12a14.178,14.178,0,0,1,.192,2.232,3.838,3.838,0,0,1-1.992-.144,1.1,1.1,0,0,0-.84,2.04,5.394,5.394,0,0,0,2.688.24c-.048.576-.1,1.176-.12,1.752-.144-.024-.264-.048-.408-.072-2.352-.264-4.416,2.3-2.736,5.112A2.508,2.508,0,0,0,175.944-4.416Zm1.344-3.24a3.7,3.7,0,0,1-.12.408c-.624,1.56-1.656.768-1.872.216a1.275,1.275,0,0,1,1.248-1.848.773.773,0,0,1,.648.48l.024.024a1.6,1.6,0,0,1,.072.7ZM199.2-.96A2.735,2.735,0,0,0,196.464-3.7,2.735,2.735,0,0,0,193.728-.96a2.735,2.735,0,0,0,2.736,2.736A2.735,2.735,0,0,0,199.2-.96Zm-.912,0A1.823,1.823,0,0,1,196.464.864,1.823,1.823,0,0,1,194.64-.96a1.8,1.8,0,0,1,1.824-1.8A1.8,1.8,0,0,1,198.288-.96Z" transform="translate(1055.43 -522.886)" fill="#fff"/>
    <path id="パス_13227" data-name="パス 13227" d="M21.048-16.656a.92.92,0,0,0,.984-.936.915.915,0,0,0-.984-.912H15.792v-.528c0-.552-.552-.84-1.1-.84s-1.1.288-1.1.84v.528h-3.24v-.528c0-.552-.552-.84-1.08-.84-.552,0-1.1.288-1.1.84v.528H3.072a.923.923,0,0,0-1.008.912.927.927,0,0,0,1.008.936H8.16v.192c0,.576.552.864,1.08.864.552,0,1.1-.288,1.1-.864v-.192h3.24v.192c0,.576.552.864,1.1.864s1.1-.288,1.1-.864v-.192Zm.456,10.1a.881.881,0,0,0,.912-.912A.906.906,0,0,0,21.48-8.4L12-8.376l.576-.648a.361.361,0,0,0,.1-.264c1.416,0,2.808-.024,4.056-.072,2.208-.072,2.28-1.392,2.28-3.24,0-1.44-.168-2.784-2.16-2.856-1.368-.048-3.072-.072-4.728-.072-1.68,0-3.288.024-4.464.072-2.424.1-2.424,1.392-2.424,3.024,0,3.072.336,3.12,5.16,3.12q-.468.5-.936.936L2.568-8.4a.912.912,0,0,0-.936.96.849.849,0,0,0,.912.888h.024l4.752-.1a21.051,21.051,0,0,1-5.04,2.52.976.976,0,0,0-.72.96A1.049,1.049,0,0,0,2.616-2.112a14.179,14.179,0,0,0,3.768-1.7c0,.072-.024.168-.024.264,0,.336-.024.816-.024,1.32,0,2.184,0,3.432,2.352,3.528,1.176.048,2.52.072,3.864.072,1.056,0,2.136-.024,3.12-.072,2.184-.12,2.232-1.608,2.232-3.48,0-.5-.024-1.032-.048-1.416a10.871,10.871,0,0,0,3.456,1.3,1.193,1.193,0,0,0,1.224-1.2.988.988,0,0,0-.864-.984,15.229,15.229,0,0,1-5.352-2.16l5.16.1ZM7.32-13.056v-.168c.048-.84.1-.84,4.968-.84,4.344,0,4.488,0,4.56.768,0,.072.024.144.024.24Zm9.552,1.272c0,.1-.024.192-.024.288-.024.5-.384.7-.912.7-1.008.024-2.184.024-3.36.024-1.584,0-3.168,0-4.3-.024-.7,0-.912-.12-.96-.672,0-.1-.024-.192-.024-.312ZM13.584-6.672c.384.36.792.72,1.224,1.056-.96-.024-2.016-.048-3.024-.048-.984,0-1.944.024-2.736.048.432-.336.864-.7,1.272-1.056ZM8.3-2.9V-3.24c.048-.864.384-.864,4.224-.864,2.712,0,3.264,0,3.336.792,0,.12.024.24.024.408ZM15.888-1.56c0,.192-.024.384-.024.528-.024.528-.432.744-.936.744-.792,0-1.8.024-2.808.024S10.128-.288,9.312-.288c-.648,0-.96-.144-1.008-.72,0-.144-.024-.336-.024-.552ZM37.08-14.184a1.562,1.562,0,0,0,1.512-1.68,2.564,2.564,0,0,0-1.368-1.752c-.7-.456-1.512-.816-1.944-1.128-1.2-.864-2.784.408-1.752,1.536a8.4,8.4,0,0,0,1.7,1.128c.168.12-.072.24-.192.312-1.008.552-.144,2.088,1.008,1.8C36.432-14.064,36.768-14.136,37.08-14.184ZM40.248-.144c8.112-4.968,3-11.448-4.248-8.3-1.128.48-2.256,1.1-2.736,1.368-.216.12-.336.12-.408-.072A6.3,6.3,0,0,1,33-9.648c.192-1.152.456-2.5.576-3.5.216-1.728-1.968-1.776-2.208-.24-.192,1.224-.5,3.072-.7,4.824a8.26,8.26,0,0,0,.192,4.08c.432.84,1.392,1.512,2.808.144a15.155,15.155,0,0,1,3.216-2.064c2.544-1.152,4.3-.792,4.8.168s-.216,2.616-2.856,4.152a11.255,11.255,0,0,1-3.216,1.032c-2.04.408-1.416,2.784.528,2.4A12.994,12.994,0,0,0,40.248-.144ZM68.5-2.208A1.334,1.334,0,1,0,66.84-4.3c-4.176,3.288-8.448,3.528-8.592.024a66.557,66.557,0,0,1,.432-7.056c.12-1.608.288-3.888.336-5.4.048-1.584-2.664-1.728-2.616.048.048,1.488-.12,3.84-.192,5.4-.12,2.544-.384,4.584-.288,7.1C56.136,2.3,63.816,1.608,68.5-2.208ZM95.64-15.528c.864.864,2.136-.7,1.128-1.608a7.973,7.973,0,0,0-2.52-1.248c-1.152-.312-1.92,1.224-.672,1.632A8.379,8.379,0,0,1,95.64-15.528ZM93.552-13.3c.84.888,2.136-.624,1.152-1.56A7.69,7.69,0,0,0,92.256-16.2c-1.128-.36-1.992,1.128-.744,1.584A8.264,8.264,0,0,1,93.552-13.3ZM95.9-8.376a9.949,9.949,0,0,0-4.272-4.56c-1.488-.864-2.544.936-1.368,1.584A8.617,8.617,0,0,1,93.7-7.224C94.344-5.736,96.5-6.792,95.9-8.376ZM84.072-12.552a31.624,31.624,0,0,0,.7-3.384c.192-1.608-2.256-1.752-2.424-.192a25.623,25.623,0,0,1-.744,3.816l-1.2.12c-.864.072-1.608.048-2.352.12a1.153,1.153,0,1,0,.072,2.3,16.282,16.282,0,0,0,2.592-.336L81-10.152a23.156,23.156,0,0,1-4.248,7.8C75.192-.6,77.688.792,78.84-.84A35.363,35.363,0,0,0,83.5-10.488c.384-.048.744-.1,1.1-.12,1.1-.1,1.608.6,1.608,2.064a10.713,10.713,0,0,1-.768,4.152c-.672,1.416-1.68,1.632-3.048,1.3-1.464-.36-2.232,1.848-.336,2.4a4.652,4.652,0,0,0,5.64-2.88,14.3,14.3,0,0,0,.816-5.352c-.1-2.688-1.632-3.864-3.648-3.7ZM102.264,1.776a1.327,1.327,0,0,0,1.3-1.32c0-1.632-3.84-3.744-4.68-3.744a1.068,1.068,0,0,0-1.128,1.056,1.079,1.079,0,0,0,.648.96,9.16,9.16,0,0,1,2.952,2.52A1.092,1.092,0,0,0,102.264,1.776ZM127.248-2.3c-1.32.192-2.688.312-3.984.408a.869.869,0,0,0-.84.936.957.957,0,0,0,.96,1.008,66.249,66.249,0,0,0,8.736-1.536,11.694,11.694,0,0,1-1.032.792,1.132,1.132,0,0,0-.552.936,1.122,1.122,0,0,0,1.128,1.1,1.306,1.306,0,0,0,.792-.264c4.512-3.072,5.856-8.52,6.024-13.584.456,0,.888.024,1.272.024a.825.825,0,0,1,.888.912c0,.528.024,1.08.024,1.656,0,7.9-1.728,8.52-2.76,8.52a4.516,4.516,0,0,1-1.272-.24,1.631,1.631,0,0,0-.456-.072,1.061,1.061,0,0,0-1.032,1.128A1.111,1.111,0,0,0,135.912.5,6.822,6.822,0,0,0,138,.864c4.464,0,4.9-5.976,4.9-10.584,0-.72-.024-1.44-.024-2.136A2.47,2.47,0,0,0,140.3-14.52c-.576,0-1.2-.024-1.8-.024l.024-3.744a1.071,1.071,0,0,0-1.152-1.056,1.03,1.03,0,0,0-1.1,1.056v3.744c-.672,0-1.344.024-1.968.024a.994.994,0,0,0-.552.144c0-.048.024-.12.024-.168a.894.894,0,0,0-.984-.864l-3.552.024.024-1.176c3.168-.336,3.648-.576,3.648-1.3a.988.988,0,0,0-.984-.984.816.816,0,0,0-.24.024,27.846,27.846,0,0,1-5.9.672c-.5,0-.984-.024-1.464-.048h-.072a.915.915,0,0,0-.984.912.945.945,0,0,0,1.008.96c.48,0,1.632,0,3-.072v1.008l-3.648-.024a.886.886,0,0,0-.96.864.886.886,0,0,0,.96.864h3.648l.024.984c-3.192,0-3.864.024-3.864,2.976,0,3.336.312,3.408,3.84,3.408v.936l-3.192.024a.883.883,0,0,0-.96.84.847.847,0,0,0,.936.84h.024l3.192-.072Zm3.96-7.9H129.24v-1.1c1.656,0,1.944,0,1.968.768Zm1.032,6.36a.835.835,0,0,0,.912-.816.828.828,0,0,0-.888-.816h-.024l-3,.072v-.912c3.432,0,3.912-.072,3.912-3.336,0-3.024-.768-3.072-3.912-3.072v-.96h3.552a1.251,1.251,0,0,0,.552-.12,1.4,1.4,0,0,0-.048.312.974.974,0,0,0,1.008,1.032c.6,0,1.3-.024,1.968-.024-.1,3.6-.7,7.152-3.024,9.864a.776.776,0,0,0-.768-.648.665.665,0,0,0-.216.024c-.888.216-1.9.432-3,.624V-3.792Zm-1.008-5.088c0,.144-.024.264-.024.408-.024.744-.456.768-1.968.768V-8.928ZM127.3-10.2h-1.968v-.24c.048-.816.168-.864,1.968-.864Zm-.024,2.448c-1.656,0-1.872-.024-1.944-.744,0-.12-.024-.264-.024-.432h1.968ZM161.4-9.024a15.132,15.132,0,0,0,1.9-.792c1.344-.672.312-2.88-1.368-1.92a12.575,12.575,0,0,1-1.8.768,19.9,19.9,0,0,1-1.032-2.016,15.362,15.362,0,0,0,1.92-.744c1.272-.6.36-2.712-1.224-1.872a9.2,9.2,0,0,1-1.512.648,20.711,20.711,0,0,0-1.728-3.624c-.864-1.176-3.408-.264-2.064,1.248a12.389,12.389,0,0,1,1.728,2.9,13.314,13.314,0,0,1-2.976.144c-1.92-.144-1.44,2.184.12,2.184a18.85,18.85,0,0,0,3.816-.384c.384.744.768,1.44,1.128,2.064a11.69,11.69,0,0,1-4.128.336c-2.04-.264-1.824,2.184-.168,2.3a17.31,17.31,0,0,0,5.52-.648c.168.264.36.48.528.72,1.392,1.872,1.008,2.232-.288,2.064-1.584-.192-4.536-.384-6.312.528-2.688,1.368-2.016,4.728.816,5.928a9.894,9.894,0,0,0,4.752.816c2.16-.192,2.016-2.856-.12-2.448a6.626,6.626,0,0,1-3.888-.36c-1.1-.456-1.608-1.728-.36-2.328,1.68-.816,5.088-.336,6.36.408,1.08.624,2.232.408,2.472-.84.264-1.368-.7-3.288-1.56-4.392C161.76-8.568,161.568-8.784,161.4-9.024Zm19.176,7.7c-1.464,0-2.856-.024-3.936-.072-1.44-.072-1.464-.624-1.464-3.1,0-.84.024-1.752.048-2.448v-.048A1.139,1.139,0,0,0,174-8.064a1.125,1.125,0,0,0-1.2,1.128c0,.648-.024,1.464-.024,2.28,0,.84.024,1.656.024,2.3a2.833,2.833,0,0,0,3.048,3.12c1.488.072,3.624.1,5.808.1s4.416-.024,6.072-.1A3.111,3.111,0,0,0,190.992-2.4c.024-.672.048-1.488.048-2.28s-.024-1.584-.048-2.184a1.169,1.169,0,0,0-1.272-1.1,1.079,1.079,0,0,0-1.176,1.056v.048c.024.7.072,1.656.072,2.568,0,2.04-.168,2.832-1.584,2.9-1.08.048-2.52.072-4.008.072V-9.1c1.3,0,2.592-.024,3.792-.072a3.086,3.086,0,0,0,3.264-3.12c.024-.672.048-1.392.048-2.088s-.024-1.392-.048-1.992a1.169,1.169,0,0,0-1.272-1.1,1.079,1.079,0,0,0-1.176,1.056v.048c.024.7.072,1.512.072,2.3,0,1.8-.072,2.736-1.584,2.784-.984.024-2.04.048-3.1.072l.024-7.176a1.137,1.137,0,0,0-1.272-1.056,1.12,1.12,0,0,0-1.224,1.056l.024,7.176c-3.96,0-4.416-.024-4.464-1.608,0-.408-.024-.912-.024-1.416,0-.744.024-1.512.048-2.208v-.048a1.139,1.139,0,0,0-1.224-1.08,1.125,1.125,0,0,0-1.2,1.128c0,.648-.024,1.368-.024,2.088,0,.744.024,1.464.024,2.112a2.8,2.8,0,0,0,3.048,3.072c1.152.048,2.472.072,3.816.072ZM207.6-4.152a8.521,8.521,0,0,1-2.736,3.528c-2.088,1.488,0,3.192,1.608,1.92,2.544-2.04,5.088-7.128,2.952-10.488-.024-.528-.072-1.032-.072-1.368,0-.7-.024-1.44-.048-2.208.624-.024,1.2-.048,1.752-.048,1.488.024,2.064.024,3.768.168,1.92.144,2.016-2.4,0-2.448-1.632-.024-2.472,0-3.648,0-.528,0-1.152.024-1.848.072,0-.12.024-.24.024-.36.048-.648.12-1.752.1-2.3a1.261,1.261,0,0,0-2.52.072c0,.768.144.864.12,2.352v.432c-2.112.192-4.272.456-5.472.648-1.008.168-2.568.336-3.528.5a1.221,1.221,0,1,0,.192,2.424c.72-.12,1.848-.432,3.576-.7,1.248-.192,3.24-.48,5.256-.672.024.7.048,1.416.072,1.944a4.756,4.756,0,0,0-2.064.216,3.314,3.314,0,0,0-1.92,4.512A3.066,3.066,0,0,0,207.6-4.152Zm-.024-3.912a1.085,1.085,0,0,1,.144.912,1.427,1.427,0,0,1-2.76.408,1.472,1.472,0,0,1,.7-1.824,1.564,1.564,0,0,1,1.536.1A3.09,3.09,0,0,1,207.576-8.064Zm13.7,7.1A2.735,2.735,0,0,0,218.544-3.7,2.735,2.735,0,0,0,215.808-.96a2.735,2.735,0,0,0,2.736,2.736A2.735,2.735,0,0,0,221.28-.96Zm-.912,0A1.823,1.823,0,0,1,218.544.864,1.823,1.823,0,0,1,216.72-.96a1.8,1.8,0,0,1,1.824-1.8A1.8,1.8,0,0,1,220.368-.96Z" transform="translate(1107.871 -488.684)" fill="#fff"/>
  </g>
</svg>
