<svg xmlns="http://www.w3.org/2000/svg" width="24.954" height="18" viewBox="0 0 24.954 18">
  <g id="icon_tel03" transform="translate(-340 -771)">
    <path id="路径_840" data-name="路径 840" d="M318.75,202.334a2.753,2.753,0,0,0,2.857,2.955,2.807,2.807,0,0,0,2.907-2.955c0-1.7-1.236-2.881-2.913-3.644l-.046.021C319.694,199.56,318.75,200.78,318.75,202.334Z" transform="translate(36.786 578.517)" fill="#fff"/>
    <path id="路径_841" data-name="路径 841" d="M75,202.333a2.885,2.885,0,0,0,.9,2.218,3.023,3.023,0,0,0,2.01.737,2.752,2.752,0,0,0,2.857-2.955c0-1.554-.943-2.773-2.8-3.623l-.046-.021C76.24,199.451,75,200.629,75,202.333Z" transform="translate(268.652 578.518)" fill="#fff"/>
    <path id="路径_842" data-name="路径 842" d="M24.954,175.1h0v-.008h-.786a16.806,16.806,0,0,0-3.156.3c-.206.038-.414.075-.614.12l.006,0-.01,0a5.092,5.092,0,0,1,2.476,4.31,4.385,4.385,0,0,1-1.415,3.385,4.55,4.55,0,0,1-3.063,1.142,4.333,4.333,0,0,1-4.428-4.527c0-.1,0-.189.009-.282,0-.037,0-.073.006-.11a5.033,5.033,0,0,1,.077-.588c0-.013,0-.026.007-.038a4.8,4.8,0,0,1,1.034-2.133c.038-.045.075-.091.115-.136q.1-.11.2-.216c.118-.119.241-.236.374-.349l.052-.046q.26-.216.554-.416h-.007l.009-.006a16.7,16.7,0,0,0-3.918-.475,16.879,16.879,0,0,0-3.086.3c-.281.052-.56.107-.828.171l.006,0-.01,0c.084.058.165.117.246.177l.056.043a5.146,5.146,0,0,1,2.029,3.085l.006.032a5.041,5.041,0,0,1,.078.594c0,.035,0,.071.006.107,0,.094.009.188.009.284a4.333,4.333,0,0,1-4.428,4.527,4.358,4.358,0,0,1-4.478-4.527,4.825,4.825,0,0,1,1.552-3.553,6.609,6.609,0,0,1,.922-.75H4.552l.008-.006a16.54,16.54,0,0,0-3.775-.427H0v12.033a.854.854,0,0,0,.854.854H24.1a.854.854,0,0,0,.854-.854V175.1Z" transform="translate(340 601.023)" fill="#fff"/>
    <path id="路径_843" data-name="路径 843" d="M6.577,75.844a16.946,16.946,0,0,1,5.9-1.027,16.947,16.947,0,0,1,5.9,1.027,16.585,16.585,0,0,1,5.791-.968h.786V72.188a.854.854,0,0,0-.854-.854H.854A.854.854,0,0,0,0,72.188v2.689H.786A16.588,16.588,0,0,1,6.577,75.844Z" transform="translate(340 699.666)" fill="#fff"/>
  </g>
</svg>
