<svg xmlns="http://www.w3.org/2000/svg" width="30" height="30" viewBox="0 0 30 30">
  <g id="icon_tel" transform="translate(-45 -21)">
    <circle id="icon_tel-2" data-name="icon_tel" cx="15" cy="15" r="15" transform="translate(45 21)" fill="#4b68c1"/>
    <g id="组_5340" data-name="组 5340" transform="translate(53 29)">
      <path id="路径_3087" data-name="路径 3087" d="M8.479,8c-.42.077-.451.641-.42.957A14.1,14.1,0,0,0,21.568,22.416c.293,0,.9-.108.9-.424" transform="translate(-8.05 -8)" fill="none" stroke="#fff" stroke-linecap="round" stroke-linejoin="round" stroke-miterlimit="10" stroke-width="1.5"/>
      <path id="路径_3088" data-name="路径 3088" d="M21.64,26.41a11.966,11.966,0,0,0,2.546,1.927" transform="translate(-15.506 -18.101)" fill="none" stroke="#fff" stroke-linecap="round" stroke-miterlimit="10" stroke-width="1.5"/>
      <path id="路径_3089" data-name="路径 3089" d="M33.021,27.892l-4.058-.912L27.28,28.65" transform="translate(-18.6 -18.413)" fill="none" stroke="#fff" stroke-linecap="round" stroke-linejoin="round" stroke-width="1.5"/>
      <path id="路径_3090" data-name="路径 3090" d="M18.1,8l.912,4.058L17.36,13.768" transform="translate(-13.158 -8)" fill="none" stroke="#fff" stroke-linecap="round" stroke-linejoin="round" stroke-width="1.5"/>
      <line id="直线_4" data-name="直线 4" x2="4.514" transform="translate(0.429)" fill="none" stroke="#fff" stroke-linecap="round" stroke-miterlimit="10" stroke-width="1.5"/>
      <line id="直线_5" data-name="直线 5" y2="4.514" transform="translate(14.421 9.479)" fill="none" stroke="#fff" stroke-linecap="round" stroke-miterlimit="10" stroke-width="1.5"/>
    </g>
  </g>
</svg>
