<svg id="logo_white" xmlns="http://www.w3.org/2000/svg" width="185.277" height="145" viewBox="0 0 185.277 145">
  <path id="路径_44" data-name="路径 44" d="M127.9,84.708a4.021,4.021,0,0,1,.988,1.847A6.935,6.935,0,0,1,128.673,90a2.331,2.331,0,0,1-.883,1.336,2.817,2.817,0,0,1-1.448.575,1.135,1.135,0,0,1-1.094-.582,1.905,1.905,0,0,1-.107-1.419A2.447,2.447,0,0,0,125,87.693a1.249,1.249,0,0,0-1.411-.248,4.986,4.986,0,0,0-1.625,1.082,16.929,16.929,0,0,0-2.471,2.935q-2.753,3.86-5.543,8.419t-5.437,9.347q-2.649,4.785-5.084,9.527t-4.414,8.888q-.281,2.965-.776,5.552a43.6,43.6,0,0,1-1.13,4.646,24.8,24.8,0,0,1-1.588,3.8,13.441,13.441,0,0,1-1.625,2.419,5.971,5.971,0,0,1-1.588,1.345,5.476,5.476,0,0,1-1.413.557,1.7,1.7,0,0,1-1.093-.118,1.425,1.425,0,0,1-.742-.689,3.638,3.638,0,0,1,.07-2.134,33.492,33.492,0,0,1,1.2-3.892q.848-2.336,2.188-5.352t2.966-6.427a54.927,54.927,0,0,0,.141-6.847,46.188,46.188,0,0,0-.776-6.846,34.024,34.024,0,0,0-1.8-6.229,16.862,16.862,0,0,0-3.072-5.047q-1.129,2.714-2.507,5.963t-3,6.744c-.235.517-.494,1.083-.776,1.7s-.566,1.284-.848,2q-1.2,2.7-2.754,6.082T76.667,131.8q-1.871,3.551-4.025,6.966a45.822,45.822,0,0,1-4.554,6.1,21.722,21.722,0,0,1-5.826,4.833A12.835,12.835,0,0,1,57,151.339a8.258,8.258,0,0,1-3-.364,7.012,7.012,0,0,1-2.365-1.28,6.5,6.5,0,0,1-1.835-2.451,8.693,8.693,0,0,1-.706-3.634,14.129,14.129,0,0,1,.918-4.663,23.964,23.964,0,0,1,3.107-5.668,38.892,38.892,0,0,1,7.2-7.714,1.581,1.581,0,0,1,1.306-.456,1.945,1.945,0,0,1,1.235.6,1.809,1.809,0,0,1,.317,1.349,2.07,2.07,0,0,1-.742,1.3,37.2,37.2,0,0,0-6.355,7c-2.072,2.921-3.167,5.341-3.283,7.323s.293,3.384,1.235,4.2a3.988,3.988,0,0,0,2.012.766,6.436,6.436,0,0,0,2.754-.331,12.411,12.411,0,0,0,3.214-1.653,20.217,20.217,0,0,0,3.458-3.115,41.619,41.619,0,0,0,4.238-5.646q2.047-3.226,3.849-6.636t3.319-6.691q1.517-3.282,2.647-5.812c.329-.716.637-1.392.918-2.032s.541-1.215.777-1.73q1.836-3.933,3.354-7.55t2.648-6.46a.293.293,0,0,0-.141-.148.725.725,0,0,1-.212-.133,11.929,11.929,0,0,0-3.848-1.329,16.618,16.618,0,0,0-4.2-.162,24.287,24.287,0,0,0-4.2.75,19.711,19.711,0,0,0-3.777,1.42,16.1,16.1,0,0,0-4.766,3.542,8.381,8.381,0,0,0-2.155,4.314,5.073,5.073,0,0,0,.247,2.872,4.262,4.262,0,0,0,1.659,2.02,6.233,6.233,0,0,0,4.555.8,17.048,17.048,0,0,0,5.967-2.351,1.687,1.687,0,0,1,1.377-.3,1.577,1.577,0,0,1,1.024.817,1.535,1.535,0,0,1,.071,1.364,2.539,2.539,0,0,1-.989,1.191,20.28,20.28,0,0,1-7.944,2.976,8.874,8.874,0,0,1-6.249-1.317,7.366,7.366,0,0,1-2.861-3.534,9.355,9.355,0,0,1-.529-4.8,12.747,12.747,0,0,1,3-6.144,19.2,19.2,0,0,1,6.319-4.752,35.435,35.435,0,0,1,4.308-1.616,25.334,25.334,0,0,1,4.942-1,21.648,21.648,0,0,1,5.119.093,15.029,15.029,0,0,1,4.907,1.554q.354-.851.636-1.511t.494-1.2A2.519,2.519,0,0,1,91,92.234a1.725,1.725,0,0,1,1.377-.2,1.344,1.344,0,0,1,.952.847,1.828,1.828,0,0,1-.106,1.436q-.282.63-.671,1.6T91.6,98.212a17.139,17.139,0,0,1,3.389,4.145,25.1,25.1,0,0,1,2.3,5.185,37.884,37.884,0,0,1,1.341,5.895,61.564,61.564,0,0,1,.6,6.246q2.117-4.041,4.343-8.167t4.518-8.04q2.294-3.913,4.484-7.428t4.166-6.31q3.743-5.106,6.779-5.946a6.129,6.129,0,0,1,2.119-.123A3.706,3.706,0,0,1,127.9,84.708Z" transform="translate(-49.093 -31.603)" fill="#fff"/>
  <path id="路径_45" data-name="路径 45" d="M156.036,113.579a1.247,1.247,0,0,1,.637,1.107,2.272,2.272,0,0,1-.565,1.416c-13.275,17.723-23.681,27.849-31.21,29.842a4.675,4.675,0,0,1-2.436.154,2.85,2.85,0,0,1-1.306-.712,4.87,4.87,0,0,1-1.13-3.377,19.865,19.865,0,0,1,1.13-5.838,60.292,60.292,0,0,1,3-7.435,81.445,81.445,0,0,1,4.378-7.959,73.52,73.52,0,0,1,5.26-7.439,42.571,42.571,0,0,1,5.615-5.814,14.715,14.715,0,0,1,5.472-3.121,4.666,4.666,0,0,1,3.178-.049,3.577,3.577,0,0,1,1.412,1.069,4.493,4.493,0,0,1,.6,3.017,11.661,11.661,0,0,1-1.448,4.271,29.43,29.43,0,0,1-3.248,4.832,38.62,38.62,0,0,1-4.8,4.914,41.409,41.409,0,0,1-6.143,4.37,31.365,31.365,0,0,1-7.2,3.1,44.431,44.431,0,0,0-2.613,6.353,16.738,16.738,0,0,0-.918,4.763,4.167,4.167,0,0,0,.071.794q.069.371.282.453c0,.048.048.094.142.14a1.373,1.373,0,0,0,.705-.082q4.8-1.287,12.039-8.4a177.5,177.5,0,0,0,16.559-19.56,2.351,2.351,0,0,1,1.235-.923A1.53,1.53,0,0,1,156.036,113.579Zm-11.156-5.5a10.164,10.164,0,0,0-3.672,2.1,31.7,31.7,0,0,0-3.989,4.025q-2.013,2.391-4.025,5.307a70.359,70.359,0,0,0-3.707,5.992,32.272,32.272,0,0,0,10.062-6.255,27.849,27.849,0,0,0,5.968-7.456q1.339-2.906.847-3.76a.773.773,0,0,0-.742-.117C145.269,107.98,145.021,108.035,144.88,108.074Z" transform="translate(-49.625 -46.451)" fill="#fff"/>
  <path id="路径_46" data-name="路径 46" d="M214.684,100.7a1.344,1.344,0,0,1,.635,1.056,1.9,1.9,0,0,1-.353,1.312c-2.683,3.838-5.131,7.284-7.343,10.3s-4.226,5.6-6.038,7.71a40.94,40.94,0,0,1-4.942,5,10.217,10.217,0,0,1-4.2,2.244,3.325,3.325,0,0,1-1.624-.037,5.021,5.021,0,0,1-1.483-.7q-1.624-1.4-2.083-4.858a49.223,49.223,0,0,1-.318-7.941q-2.9,3.141-5.72,6.2t-5.473,5.684q-2.646,2.622-5.013,4.734a34.812,34.812,0,0,1-4.272,3.332,1.316,1.316,0,0,1-.565.294,1.545,1.545,0,0,1-1.059-.066,1.318,1.318,0,0,1-.706-.725,1.9,1.9,0,0,1,.105-1.371,2.353,2.353,0,0,1,.954-1.177,32.386,32.386,0,0,0,4.518-3.58q2.542-2.335,5.4-5.3t5.932-6.334q3.073-3.368,6.037-6.666a3.508,3.508,0,0,1,.071-.652,3.986,3.986,0,0,0,.07-.722c.047-.669.07-1.226.07-1.675V105.6a35.585,35.585,0,0,0-.035-3.594,21.139,21.139,0,0,0-.283-2.37,5.341,5.341,0,0,0-.423-1.385,1.4,1.4,0,0,0-.53-.618.429.429,0,0,0-.565-.008,5.2,5.2,0,0,0-1.659,1.487q-1.1,1.287-2.3,2.992t-2.365,3.482c-.775,1.183-1.4,2.165-1.87,2.942q-1.2,1.718-2.4,3.617a20.012,20.012,0,0,1-1.977,2.739,2.473,2.473,0,0,1-1.306.908,1.271,1.271,0,0,1-1.236-.238,1.323,1.323,0,0,1-.565-1.121,2.309,2.309,0,0,1,.565-1.422c.141-.225.376-.559.706-1s.682-.933,1.06-1.481.765-1.119,1.165-1.718A18.351,18.351,0,0,0,174.3,107.1q3.6-5.665,6.213-9.1t4.872-3.966a3.48,3.48,0,0,1,3.178.537,5.54,5.54,0,0,1,1.907,3.353,27.939,27.939,0,0,1,.423,6.863v.776q4.027-4.41,6.884-7.427t4.908-4.931a30.95,30.95,0,0,1,3.39-2.826,5.043,5.043,0,0,1,2.33-.994,4.072,4.072,0,0,1,1.695.109,2.9,2.9,0,0,1,1.412.865q1.412,1.579.918,4.612a2.165,2.165,0,0,1-.706,1.292,1.99,1.99,0,0,1-1.271.525,1.7,1.7,0,0,1-1.235-.532,1.435,1.435,0,0,1-.319-1.295,4.028,4.028,0,0,0,.107-1.5c-.07-.225-.153-.353-.247-.387a.19.19,0,0,0-.213-.11l-.282.042A9.759,9.759,0,0,0,206,94.667q-1.626,1.425-3.707,3.518t-4.484,4.68q-2.4,2.585-4.589,5.027-.636.7-1.271,1.4t-1.342,1.421q-.073,1.924-.106,4.119t.07,4.186a20,20,0,0,0,.458,3.5,4.005,4.005,0,0,0,.989,2.08.5.5,0,0,0,.424.051,8.818,8.818,0,0,0,3.742-2.542,59.911,59.911,0,0,0,4.873-5.521q2.613-3.3,5.438-7.313t5.577-7.971a2.493,2.493,0,0,1,1.306-.906A1.339,1.339,0,0,1,214.684,100.7Z" transform="translate(-58.083 -43.615)" fill="#fff"/>
  <path id="路径_47" data-name="路径 47" d="M237.129,98.009q-1.483,3.065-2.825,5.921t-2.33,5.292q-.989,2.434-1.624,4.3a12.375,12.375,0,0,0-.706,2.861,12.929,12.929,0,0,0,3-1.988c1.247-1.019,2.765-2.441,4.556-4.244s3.848-4.025,6.178-6.631,4.953-5.671,7.872-9.142a1.538,1.538,0,0,1,1.2-.628,1.978,1.978,0,0,1,1.342.368,2.082,2.082,0,0,1,.635,1.3,1.914,1.914,0,0,1-.424,1.38q-3.108,3.628-6.637,7.622t-6.92,7.4a68.6,68.6,0,0,1-6.461,5.781,12.547,12.547,0,0,1-5.331,2.744l-.141.023a2.415,2.415,0,0,1-1.766-.422q-.848-.565-.847-2.47a16.324,16.324,0,0,1,.777-3.731q.705-2.3,1.8-5.057t2.436-5.7q1.34-2.948,2.718-5.78t2.649-5.275q1.27-2.444,2.188-4.166-.565.061-1.13.124a1.686,1.686,0,0,1-1.306-.342,1.463,1.463,0,0,1-.529-1.207,2.086,2.086,0,0,1,1.835-2.053q1.694-.19,3.389-.35c2.4-4.414,4.378-7.776,5.932-10.125a59.343,59.343,0,0,1,3.707-5.148,7.228,7.228,0,0,1,2.012-1.89,2.959,2.959,0,0,1,.918-.263,1.9,1.9,0,0,1,1.695.976,2.543,2.543,0,0,1,.248,1.271,7.15,7.15,0,0,1-.848,2.332c-.541,1.087-1.424,2.588-2.647,4.525s-2.919,4.546-5.084,7.871q3.037-.176,6.073-.231a1.74,1.74,0,0,1,1.306.513,1.766,1.766,0,0,1,.53,1.3,1.667,1.667,0,0,1-.53,1.274,1.882,1.882,0,0,1-1.306.511q-4.342.076-8.685.4-1.132,1.779-2.436,3.8t-2.719,4.287q-.742,1.137-1.482,2.279A1.749,1.749,0,0,0,237.129,98.009Z" transform="translate(-69.969 -39.227)" fill="#fff"/>
  <path id="路径_48" data-name="路径 48" d="M157.921,134.16a2.131,2.131,0,0,1-1.735-.867c-1.9-2.566,1.177-10.341,4.093-16.412a1.615,1.615,0,0,1,2.912,1.4c-2.228,4.644-3.979,9.52-4.35,11.9,2.407-2.159,7.19-8.321,11-13.873a1.616,1.616,0,1,1,2.664,1.83c-5,7.28-11.583,15.968-14.545,16.02Zm.911-2.706Z" transform="translate(-56.461 -48.662)" fill="#fff"/>
  <path id="路径_49" data-name="路径 49" d="M220.6,121.165a1.735,1.735,0,0,1-1.411-.7c-1.945-2.625,2.242-12.062,4.132-16a1.212,1.212,0,1,1,2.184,1.049c-2.617,5.45-4.521,11.06-4.47,12.984,2.108-1.415,7.529-8.305,11.82-14.553a1.212,1.212,0,0,1,2,1.373c-4.05,5.895-11.282,15.793-14.219,15.846Zm.543-2.136h0Z" transform="translate(-68.582 -46.32)" fill="#fff"/>
  <path id="路径_50" data-name="路径 50" d="M58.12,172.05a96.885,96.885,0,0,1,10.183-5,44.583,44.583,0,0,1,14.439-2.4c12.483-.337,24.306,3.111,36.661,3.841,20.4,1.206,40.135-5.909,56.553-17.738a180,180,0,0,0,14.57-12.141c.971-.868-.461-2.292-1.428-1.427-11.1,9.918-22.672,18.837-36.763,24.156a79.932,79.932,0,0,1-34.228,5.043c-11.933-.9-23.29-4.08-35.366-3.754a46.641,46.641,0,0,0-14.975,2.474,99.316,99.316,0,0,0-10.666,5.2c-1.157.593-.137,2.336,1.02,1.744Z" transform="translate(-37.436 -52.756)" fill="#fff"/>
  <path id="路径_51" data-name="路径 51" d="M86.972,78.42a1.009,1.009,0,0,1-.93-1.4A72.523,72.523,0,0,1,212.911,64.629a1.01,1.01,0,1,1-1.672,1.133A70.5,70.5,0,0,0,87.9,77.8,1.01,1.01,0,0,1,86.972,78.42Z" transform="translate(-43.08 -32.738)" fill="#fff"/>
  <path id="路径_52" data-name="路径 52" d="M155.748,194.742a72.549,72.549,0,0,1-54.417-24.594,1.01,1.01,0,0,1,1.516-1.334,70.48,70.48,0,0,0,123.382-46.572,1.01,1.01,0,1,1,2.02,0A72.582,72.582,0,0,1,155.748,194.742Z" transform="translate(-45.985 -49.742)" fill="#fff"/>
  <path id="路径_53" data-name="路径 53" d="M217.01,148.826" transform="translate(-68.261 -55.044)" fill="#fff" stroke="#000" stroke-linecap="round" stroke-linejoin="round" stroke-width="3"/>
  <g id="组_11" data-name="组 11" transform="translate(93.877 127.875)">
    <path id="路径_54" data-name="路径 54" d="M156.381,199.361a.151.151,0,0,1-.181.132l-1.318-.2a.148.148,0,0,1-.1-.068l-3.033-5.181-.687,4.505a.151.151,0,0,1-.181.133l-1.516-.233a.149.149,0,0,1-.132-.179l1.065-6.956a.149.149,0,0,1,.179-.132l1.505.23a.148.148,0,0,1,.1.068l2.853,4.962.66-4.318a.149.149,0,0,1,.18-.132l1.535.236a.147.147,0,0,1,.133.179Z" transform="translate(-149.115 -191.058)" fill="#fff"/>
    <path id="路径_55" data-name="路径 55" d="M156.2,199.587a.283.283,0,0,1-.045,0l-1.319-.2a.265.265,0,0,1-.175-.116l-2.867-4.9-.637,4.167a.27.27,0,0,1-.317.234l-1.517-.233a.268.268,0,0,1-.233-.316l1.064-6.957a.273.273,0,0,1,.317-.234l1.506.23a.267.267,0,0,1,.175.116l2.689,4.673.608-3.976a.273.273,0,0,1,.318-.234l1.536.236a.269.269,0,0,1,.234.317l-1.063,6.956A.271.271,0,0,1,156.2,199.587Zm-4.543-5.93,3.206,5.476,1.327.211c.026,0,.038,0,.043-.031l1.062-6.955h0l-.031-.041-1.535-.236a.04.04,0,0,0-.041.031l-.713,4.661-3.025-5.262-1.514-.239c-.031-.006-.038,0-.043.031l-1.063,6.956c0,.031.006.037.029.04l1.516.233c.025,0,.038,0,.043-.031Z" transform="translate(-149.086 -191.029)" fill="#fff"/>
  </g>
  <g id="组_12" data-name="组 12" transform="translate(107.959 130.688)">
    <path id="路径_56" data-name="路径 56" d="M172.279,197.293a1.661,1.661,0,0,1-.04.633.144.144,0,0,1-.112.069l-3.925.2c.027.5.835,1.072,1.463,1.04a2.252,2.252,0,0,0,1.7-.7.136.136,0,0,1,.2,0l.517.437a.176.176,0,0,1,.023.241,2.733,2.733,0,0,1-2.411,1.206,2.819,2.819,0,0,1-3.021-2.7V197.7a2.685,2.685,0,0,1,2.665-3.03A2.565,2.565,0,0,1,172.279,197.293Zm-4.151-.114,2.854-.145c-.033-.651-.647-1.146-1.572-1.1A1.378,1.378,0,0,0,168.128,197.179Z" transform="translate(-166.546 -194.539)" fill="#fff"/>
    <path id="路径_57" data-name="路径 57" d="M169.487,200.52a2.872,2.872,0,0,1-2.084-.837,3.047,3.047,0,0,1-.88-1.978v-.035a2.8,2.8,0,0,1,2.78-3.153,2.683,2.683,0,0,1,3.07,2.741h0a1.66,1.66,0,0,1-.052.692.274.274,0,0,1-.218.137l-3.785.194a1.494,1.494,0,0,0,1.312.805l.063,0a2.105,2.105,0,0,0,1.563-.662.259.259,0,0,1,.353-.007l.523.442a.3.3,0,0,1,.05.392,2.85,2.85,0,0,1-2.51,1.268Q169.576,200.52,169.487,200.52Zm.036-5.766c-.069,0-.138,0-.209,0a2.571,2.571,0,0,0-2.55,2.9v.035a2.8,2.8,0,0,0,.809,1.816,2.694,2.694,0,0,0,2.084.763,2.6,2.6,0,0,0,2.314-1.15c.032-.057.016-.071,0-.087l-.514-.435a.086.086,0,0,0-.027-.014,2.354,2.354,0,0,1-1.727.738l-.062,0c-.019,0-.039,0-.058,0-.687,0-1.5-.607-1.532-1.156l-.006-.121.12-.006,3.925-.2a1.586,1.586,0,0,0,.038-.575h0a2.7,2.7,0,0,0-.767-1.877A2.608,2.608,0,0,0,169.523,194.753Zm-1.538,2.525-.006-.121a1.5,1.5,0,0,1,1.4-1.371,1.839,1.839,0,0,1,1.2.31,1.181,1.181,0,0,1,.5.9l.006.121-.121.006Zm1.52-1.253-.117,0a1.3,1.3,0,0,0-1.16,1l2.591-.133a.952.952,0,0,0-.388-.6A1.558,1.558,0,0,0,169.505,196.025Z" transform="translate(-166.517 -194.51)" fill="#fff"/>
  </g>
  <g id="组_13" data-name="组 13" transform="translate(118.982 128.725)">
    <path id="路径_58" data-name="路径 58" d="M186.714,197.3a.2.2,0,0,1-.091.355l-1.311.3a.129.129,0,0,1-.126-.036l-1.439-1.342-.7,1.831a.131.131,0,0,1-.1.087l-1.291.3a.2.2,0,0,1-.238-.291l1.213-2.8-2.239-2.009a.2.2,0,0,1,.091-.355l1.341-.307a.143.143,0,0,1,.128.036l1.34,1.331.626-1.782a.141.141,0,0,1,.1-.086l1.291-.3a.2.2,0,0,1,.238.28L184.4,195.28Z" transform="translate(-180.192 -192.109)" fill="#fff"/>
    <path id="路径_59" data-name="路径 59" d="M181.569,198.894a.318.318,0,0,1-.243-.107.346.346,0,0,1-.051-.355l1.181-2.726-2.173-1.951a.318.318,0,0,1,.145-.563l1.341-.307a.268.268,0,0,1,.232.061l1.212,1.2.563-1.6a.264.264,0,0,1,.187-.165l1.289-.295a.331.331,0,0,1,.33.1.327.327,0,0,1,.046.341l-1.114,2.682,2.25,1.965a.319.319,0,0,1,.12.32.338.338,0,0,1-.262.246l-1.312.3a.259.259,0,0,1-.231-.061l-1.311-1.223-.638,1.663a.255.255,0,0,1-.184.162l-1.291.295A.4.4,0,0,1,181.569,198.894Zm.269-5.768-1.356.3a.091.091,0,0,0-.075.057.1.1,0,0,0,.037.09l2.3,2.067-1.248,2.88a.106.106,0,0,0,.01.1.084.084,0,0,0,.091.019l1.291-.295.779-2.012,1.57,1.465,1.328-.294a.1.1,0,0,0,.079-.064.077.077,0,0,0-.037-.078l0,0-2.383-2.082,1.18-2.844a.084.084,0,0,0-.007-.091.087.087,0,0,0-.091-.024l-1.29.295-.7,1.971Z" transform="translate(-180.163 -192.081)" fill="#fff"/>
  </g>
  <g id="组_14" data-name="组 14" transform="translate(129.292 124.166)">
    <path id="路径_60" data-name="路径 60" d="M196.773,187.8a.149.149,0,0,1,.206.085l.388.932a.149.149,0,0,1-.086.206l-1.474.612.964,2.318c.162.388.5.453.942.267a1.482,1.482,0,0,0,.717-.548.159.159,0,0,1,.193-.081l.737.3a2.316,2.316,0,0,1-1.6,1.748,2.054,2.054,0,0,1-1.29.183,1.755,1.755,0,0,1-1.092-1.126l-1.021-2.453-.669.278a.149.149,0,0,1-.206-.085l-.387-.931a.149.149,0,0,1,.085-.205l.67-.279-.715-1.716a.151.151,0,0,1,.086-.207l1.184-.491a.149.149,0,0,1,.206.084l.713,1.717Z" transform="translate(-192.954 -186.466)" fill="#fff"/>
    <path id="路径_61" data-name="路径 61" d="M196.769,193.946a1.746,1.746,0,0,1-.355-.038,1.863,1.863,0,0,1-1.182-1.2l-.974-2.341-.557.232a.27.27,0,0,1-.365-.151l-.387-.931a.27.27,0,0,1,.151-.364l.557-.232-.668-1.6a.272.272,0,0,1,.15-.365l1.184-.491a.27.27,0,0,1,.364.149l.667,1.605,1.342-.558a.287.287,0,0,1,.215,0,.283.283,0,0,1,.15.155l.387.931a.27.27,0,0,1-.15.364l-1.363.566.918,2.206a.445.445,0,0,0,.234.262.727.727,0,0,0,.549-.06,1.36,1.36,0,0,0,.659-.5.281.281,0,0,1,.333-.133l.747.3-.046.113.111.041-.007.029a2.545,2.545,0,0,1-1.663,1.789A2.7,2.7,0,0,1,196.769,193.946Zm-2.381-3.9,1.068,2.566a1.631,1.631,0,0,0,1.009,1.056,1.9,1.9,0,0,0,1.216-.179,2.329,2.329,0,0,0,1.506-1.563l-.638-.255c-.013,0-.03,0-.041.023a1.567,1.567,0,0,1-.778.6.953.953,0,0,1-.734.061.681.681,0,0,1-.365-.393l-1.011-2.431,1.587-.658.019-.048-.388-.931-.047-.019-1.566.65-.76-1.828a.039.039,0,0,0-.047-.019l-1.184.492c-.022.008-.032.019-.019.049l.761,1.827-.782.325c-.023.01-.032.019-.02.049l.388.93.047.02Z" transform="translate(-192.925 -186.437)" fill="#fff"/>
  </g>
  <g id="组_15" data-name="组 15" transform="translate(144.477 115.409)">
    <path id="路径_62" data-name="路径 62" d="M213.93,176.671a.15.15,0,0,1-.025.221l-1.1.862a.148.148,0,0,1-.22-.027l-.675-.86a.15.15,0,0,1,.027-.222l1.1-.86a.149.149,0,0,1,.222.027Zm3.755,4.881a.148.148,0,0,1-.027.22l-.992.777a.149.149,0,0,1-.221-.027l-3.255-4.124a.149.149,0,0,1,.027-.221l1.009-.791a.148.148,0,0,1,.221.028Z" transform="translate(-211.75 -175.626)" fill="#fff"/>
    <path id="路径_63" data-name="路径 63" d="M216.537,182.68a.278.278,0,0,1-.216-.11l-3.255-4.124a.27.27,0,0,1,.047-.391l1.01-.791a.268.268,0,0,1,.206-.061.278.278,0,0,1,.185.109l3.239,4.137a.269.269,0,0,1-.049.39l-.992.777A.28.28,0,0,1,216.537,182.68Zm-2.266-5.224-1.009.79a.043.043,0,0,0-.007.051l3.256,4.123c.018.021.028.023.051.006l.993-.777c.022-.018.023-.029.006-.052l-3.239-4.136Zm-1.6.428a.273.273,0,0,1-.216-.11l-.675-.86a.276.276,0,0,1-.061-.207.286.286,0,0,1,.108-.186l1.1-.86a.289.289,0,0,1,.206-.061.275.275,0,0,1,.186.109l.672.86a.27.27,0,0,1-.045.39l-1.1.863A.291.291,0,0,1,212.675,177.883Zm.407-2.033-1.1.861a.04.04,0,0,0-.006.051l.675.861c.017.02.029.024.051.006l1.1-.861c.018-.015.024-.027,0-.052l-.672-.86Z" transform="translate(-211.721 -175.598)" fill="#fff"/>
  </g>
  <g id="组_16" data-name="组 16" transform="translate(151.991 108.724)">
    <path id="路径_64" data-name="路径 64" d="M227.427,168.534l1.959,1.793a.149.149,0,0,1,.01.223l-.829.906a.149.149,0,0,1-.222.011c-.843-.757-1.9-1.722-1.9-1.722-.814-.744-1.583-.836-2.241-.115a2.169,2.169,0,0,0-.312,2.191l2.246,2.054a.148.148,0,0,1,.01.222l-.83.906a.148.148,0,0,1-.222.01l-3.872-3.542a.149.149,0,0,1-.01-.222l.829-.907a.15.15,0,0,1,.222-.01l.705.645a3.434,3.434,0,0,1,.931-2.806C225.017,166.956,226.3,167.5,227.427,168.534Z" transform="translate(-221.051 -167.352)" fill="#fff"/>
    <path id="路径_65" data-name="路径 65" d="M225.178,175.15a.28.28,0,0,1-.189-.077l-3.872-3.543a.269.269,0,0,1-.017-.393l.828-.906a.272.272,0,0,1,.393-.019l.463.424a3.782,3.782,0,0,1,1-2.576c1-1.091,2.243-.971,3.694.356l1.959,1.793a.269.269,0,0,1,.018.393l-.829.906a.272.272,0,0,1-.393.018c-.844-.757-1.9-1.722-1.9-1.722a1.914,1.914,0,0,0-1.106-.575,1.175,1.175,0,0,0-.965.452,2.069,2.069,0,0,0-.295,2.041l2.222,2.033a.28.28,0,0,1,.094.195.276.276,0,0,1-.077.2l-.829.906a.28.28,0,0,1-.192.095Zm-3.045-4.771a.038.038,0,0,0-.027.015l-.828.906c-.019.021-.018.032,0,.052l3.871,3.542a.043.043,0,0,0,.052,0l.829-.906.08-.14-.082.089-2.27-2.075-.01-.031a2.317,2.317,0,0,1,.338-2.31,1.441,1.441,0,0,1,1.16-.531,2.145,2.145,0,0,1,1.252.639s1.053.963,1.9,1.721c.021.018.034.016.052,0l.829-.906c.019-.021.018-.033,0-.053l-1.958-1.792c-1.353-1.238-2.45-1.359-3.353-.37a3.3,3.3,0,0,0-.9,2.689l.125.419-1.028-.941A.036.036,0,0,0,222.133,170.379Z" transform="translate(-221.022 -167.322)" fill="#fff"/>
  </g>
  <g id="组_17" data-name="组 17" transform="translate(160.851 98.817)">
    <path id="路径_66" data-name="路径 66" d="M234.544,155.214a.164.164,0,0,1,.2.119l.263,1.122a.15.15,0,0,1-.115.187,2.075,2.075,0,0,0-1.141.94,1.514,1.514,0,1,0,2.621,1.516,2.271,2.271,0,0,0,.326-1.462.146.146,0,0,1,.1-.17l1.015-.29a.148.148,0,0,1,.2.12,3.176,3.176,0,0,1-.465,2.475,2.966,2.966,0,0,1-4.068,1.195l-.027-.016a2.992,2.992,0,0,1-.793-4.2A3.134,3.134,0,0,1,234.544,155.214Z" transform="translate(-232.019 -155.088)" fill="#fff"/>
    <path id="路径_67" data-name="路径 67" d="M234.852,161.453a2.784,2.784,0,0,1-1.464-.413l-.027-.016a3.12,3.12,0,0,1-.834-4.37,3.292,3.292,0,0,1,1.956-1.587h0a.291.291,0,0,1,.217.034.278.278,0,0,1,.128.176l.262,1.122a.269.269,0,0,1-.2.33,1.968,1.968,0,0,0-1.074.889,1.33,1.33,0,0,0-.036,1.364,1.489,1.489,0,0,0,1.231.793,1.378,1.378,0,0,0,1.218-.769,2.163,2.163,0,0,0,.309-1.386.267.267,0,0,1,.2-.3l1.011-.289a.277.277,0,0,1,.223.026.272.272,0,0,1,.127.192,3.543,3.543,0,0,1-3.252,4.2Zm-.305-6.151a3.023,3.023,0,0,0-1.813,1.478,2.882,2.882,0,0,0,.753,4.037l.027.015a2.855,2.855,0,0,0,3.9-1.154,3.062,3.062,0,0,0,.449-2.388l-.014-.027h-.032l-1.015.291c-.014,0-.019.018-.017.035a2.412,2.412,0,0,1-.343,1.544,1.644,1.644,0,0,1-1.394.885h-.037a1.735,1.735,0,0,1-1.438-.919,1.571,1.571,0,0,1,.042-1.608,2.2,2.2,0,0,1,1.206-.992c.043-.014.039-.029.036-.044l-.263-1.123a.042.042,0,0,0-.048-.031Z" transform="translate(-231.991 -155.059)" fill="#fff"/>
  </g>
  <g id="组_19" data-name="组 19" transform="translate(96.309 16.937)">
    <path id="路径_68" data-name="路径 68" d="M164.969,76.9l-.016-.01a.542.542,0,0,0-.535.942L180.8,87.138l.444-.224Z" transform="translate(-154.412 -58.146)" fill="#fff"/>
    <path id="路径_69" data-name="路径 69" d="M168.174,65.984l-.012-.012a.542.542,0,0,0-.762.77l16.983,16.8.317-.151Z" transform="translate(-155.007 -56.031)" fill="#fff"/>
    <path id="路径_70" data-name="路径 70" d="M188.119,61.919a.542.542,0,0,0,.518.407.534.534,0,0,0,.141-.018.541.541,0,0,0,.389-.658l-1.686-6.565a.541.541,0,0,0-1.049.27Z" transform="translate(-158.691 -53.891)" fill="#fff"/>
    <path id="路径_71" data-name="路径 71" d="M166.221,87.519l-.021-.006a.542.542,0,0,0-.27,1.049l10.518,2.705c.339-.125.666-.25.978-.372Z" transform="translate(-154.677 -60.197)" fill="#fff"/>
    <path id="路径_72" data-name="路径 72" d="M205.612,66.261a.551.551,0,0,0,.14.02.541.541,0,0,0,.527-.4l2.432-8.713a.541.541,0,1,0-1.042-.292l-2.432,8.713A.542.542,0,0,0,205.612,66.261Z" transform="translate(-162.304 -54.238)" fill="#fff"/>
    <path id="路径_73" data-name="路径 73" d="M152.493,84.734l8.355,2.332a.528.528,0,0,0,.141.019.541.541,0,0,0,.151-1.062l-8.355-2.332a.541.541,0,1,0-.292,1.043Z" transform="translate(-152.097 -59.462)" fill="#fff"/>
    <path id="路径_74" data-name="路径 74" d="M153.984,94.374h-.01a.541.541,0,1,0,0,1.083l11.062-.034c.938-.221,1.915-.46,2.908-.714Z" transform="translate(-152.353 -61.519)" fill="#fff"/>
    <path id="路径_75" data-name="路径 75" d="M232.653,73.117a.542.542,0,0,0-.747-.174L221.4,79.486l11.038-5.6.041-.023A.541.541,0,0,0,232.653,73.117Z" transform="translate(-165.414 -57.385)" fill="#fff"/>
    <path id="路径_76" data-name="路径 76" d="M216.328,62.325l.009-.015a.541.541,0,1,0-.941-.536L205.362,79.4l.446.057Z" transform="translate(-162.332 -55.202)" fill="#fff"/>
    <path id="路径_77" data-name="路径 77" d="M204.536,72.248l.008-.027a.542.542,0,0,0-1.051-.263l-2.306,9.177c.213-.021.424-.036.629-.043Z" transform="translate(-161.53 -57.133)" fill="#fff"/>
    <path id="路径_78" data-name="路径 78" d="M222.029,69.525,210.305,81.414l.647.078L222.787,70.3l.014-.014a.542.542,0,0,0-.772-.76Z" transform="translate(-163.282 -56.713)" fill="#fff"/>
    <path id="路径_79" data-name="路径 79" d="M178.9,62.482l-.009-.016a.542.542,0,1,0-.935.548l10.96,18.694.314-.137Z" transform="translate(-157.052 -55.336)" fill="#fff"/>
    <path id="路径_80" data-name="路径 80" d="M190.074,65.181l0-.022a.542.542,0,0,0-1.044.291l4.4,15.784c.128-.048.258-.1.385-.142Z" transform="translate(-159.189 -55.829)" fill="#fff"/>
    <path id="路径_81" data-name="路径 81" d="M198.634,54.259v-.016a.542.542,0,0,0-1.083,0l.128,24c.11-.031.221-.062.33-.09Z" transform="translate(-160.831 -53.704)" fill="#fff"/>
  </g>
</svg>
