<svg xmlns="http://www.w3.org/2000/svg" width="144.868" height="122" viewBox="0 0 144.868 122">
  <g id="logo" transform="translate(-49.093 -32.738)">
    <path id="路径_44" data-name="路径 44" d="M115.4,84.537a3.383,3.383,0,0,1,.831,1.554,5.834,5.834,0,0,1-.178,2.9,1.961,1.961,0,0,1-.743,1.124,2.37,2.37,0,0,1-1.218.484.955.955,0,0,1-.92-.489,1.6,1.6,0,0,1-.09-1.194,2.059,2.059,0,0,0-.119-1.868,1.051,1.051,0,0,0-1.187-.209,4.2,4.2,0,0,0-1.367.91,14.244,14.244,0,0,0-2.079,2.469q-2.316,3.247-4.664,7.084t-4.574,7.864q-2.229,4.026-4.277,8.016T91.1,120.662q-.237,2.495-.652,4.672a36.685,36.685,0,0,1-.951,3.909,20.864,20.864,0,0,1-1.336,3.194,11.308,11.308,0,0,1-1.368,2.036,5.024,5.024,0,0,1-1.336,1.132,4.606,4.606,0,0,1-1.189.468,1.43,1.43,0,0,1-.92-.1,1.2,1.2,0,0,1-.625-.58,3.061,3.061,0,0,1,.059-1.8,28.174,28.174,0,0,1,1.011-3.275q.714-1.966,1.841-4.5t2.5-5.408a46.215,46.215,0,0,0,.118-5.761,38.859,38.859,0,0,0-.653-5.76,28.627,28.627,0,0,0-1.515-5.241A14.187,14.187,0,0,0,83.492,99.4q-.95,2.284-2.109,5.017t-2.525,5.674l-.653,1.433q-.357.781-.714,1.679-1.009,2.271-2.317,5.117t-2.881,5.834q-1.574,2.987-3.386,5.861a38.556,38.556,0,0,1-3.832,5.135,18.276,18.276,0,0,1-4.9,4.067,10.8,10.8,0,0,1-4.426,1.38,6.947,6.947,0,0,1-2.525-.306,5.9,5.9,0,0,1-1.99-1.077,5.472,5.472,0,0,1-1.544-2.062,7.314,7.314,0,0,1-.594-3.058,11.888,11.888,0,0,1,.772-3.923,20.164,20.164,0,0,1,2.614-4.769,32.724,32.724,0,0,1,6.06-6.491,1.33,1.33,0,0,1,1.1-.383,1.636,1.636,0,0,1,1.039.505,1.522,1.522,0,0,1,.267,1.135,1.742,1.742,0,0,1-.624,1.094,31.3,31.3,0,0,0-5.347,5.887c-1.743,2.458-2.664,4.494-2.762,6.162s.247,2.847,1.039,3.533a3.356,3.356,0,0,0,1.693.644,5.415,5.415,0,0,0,2.317-.279,10.442,10.442,0,0,0,2.7-1.391,17.011,17.011,0,0,0,2.91-2.621,35.014,35.014,0,0,0,3.566-4.75q1.722-2.714,3.238-5.583t2.792-5.63q1.277-2.761,2.227-4.891c.277-.6.536-1.171.772-1.709s.455-1.022.654-1.455q1.545-3.31,2.822-6.353t2.228-5.436a.247.247,0,0,0-.119-.124.61.61,0,0,1-.179-.112,10.037,10.037,0,0,0-3.237-1.118A13.981,13.981,0,0,0,74.1,95.9a20.435,20.435,0,0,0-3.535.631,16.582,16.582,0,0,0-3.178,1.195,13.546,13.546,0,0,0-4.01,2.98,7.051,7.051,0,0,0-1.813,3.63,4.268,4.268,0,0,0,.208,2.416,3.586,3.586,0,0,0,1.4,1.7,5.244,5.244,0,0,0,3.832.674,14.343,14.343,0,0,0,5.02-1.978,1.419,1.419,0,0,1,1.158-.249,1.327,1.327,0,0,1,.861.687,1.291,1.291,0,0,1,.06,1.148,2.136,2.136,0,0,1-.832,1,17.063,17.063,0,0,1-6.684,2.5,7.466,7.466,0,0,1-5.258-1.108,6.2,6.2,0,0,1-2.407-2.973,7.871,7.871,0,0,1-.445-4.036A10.725,10.725,0,0,1,61,98.955a16.151,16.151,0,0,1,5.317-4,29.813,29.813,0,0,1,3.625-1.36,21.314,21.314,0,0,1,4.158-.844,18.216,18.216,0,0,1,4.307.078,12.645,12.645,0,0,1,4.129,1.308q.3-.716.535-1.272t.416-1.01a2.12,2.12,0,0,1,.862-.988,1.451,1.451,0,0,1,1.159-.166,1.131,1.131,0,0,1,.8.712,1.538,1.538,0,0,1-.089,1.208q-.238.53-.565,1.344t-.8,1.93a14.42,14.42,0,0,1,2.851,3.488,21.118,21.118,0,0,1,1.931,4.362,31.876,31.876,0,0,1,1.128,4.96,51.8,51.8,0,0,1,.506,5.255q1.781-3.4,3.654-6.871t3.8-6.764q1.93-3.292,3.773-6.25t3.505-5.309q3.149-4.3,5.7-5a5.157,5.157,0,0,1,1.783-.1A3.118,3.118,0,0,1,115.4,84.537Z" transform="translate(0 -16.302)"/>
    <path id="路径_45" data-name="路径 45" d="M150.324,112.076a1.049,1.049,0,0,1,.536.931,1.911,1.911,0,0,1-.476,1.192c-11.17,14.912-19.925,23.432-26.26,25.108a3.933,3.933,0,0,1-2.049.13,2.4,2.4,0,0,1-1.1-.6,4.1,4.1,0,0,1-.951-2.841,16.714,16.714,0,0,1,.951-4.912,50.724,50.724,0,0,1,2.525-6.255,68.518,68.518,0,0,1,3.683-6.7,61.849,61.849,0,0,1,4.426-6.259,35.82,35.82,0,0,1,4.724-4.892,12.381,12.381,0,0,1,4.6-2.626,3.926,3.926,0,0,1,2.674-.041,3.01,3.01,0,0,1,1.188.9,3.781,3.781,0,0,1,.505,2.539,9.811,9.811,0,0,1-1.218,3.594,24.764,24.764,0,0,1-2.733,4.065,32.5,32.5,0,0,1-4.04,4.135,34.841,34.841,0,0,1-5.169,3.677,26.389,26.389,0,0,1-6.06,2.6,37.388,37.388,0,0,0-2.2,5.345,14.085,14.085,0,0,0-.772,4.008,3.506,3.506,0,0,0,.06.668q.058.312.237.381c0,.041.04.079.12.118a1.155,1.155,0,0,0,.593-.069q4.041-1.083,10.13-7.07a149.342,149.342,0,0,0,13.932-16.457,1.978,1.978,0,0,1,1.039-.776A1.287,1.287,0,0,1,150.324,112.076Zm-9.387-4.632a8.552,8.552,0,0,0-3.089,1.765,26.67,26.67,0,0,0-3.356,3.387q-1.693,2.012-3.386,4.465a59.2,59.2,0,0,0-3.119,5.041,27.154,27.154,0,0,0,8.466-5.263,23.432,23.432,0,0,0,5.021-6.274q1.127-2.445.712-3.163a.651.651,0,0,0-.624-.1C141.264,107.365,141.056,107.411,140.938,107.444Z" transform="translate(-22.719 -22.857)"/>
    <path id="路径_46" data-name="路径 46" d="M206.651,98.9a1.131,1.131,0,0,1,.534.888,1.6,1.6,0,0,1-.3,1.1c-2.257,3.229-4.317,6.128-6.178,8.669s-3.556,4.71-5.08,6.487a34.456,34.456,0,0,1-4.158,4.2,8.6,8.6,0,0,1-3.535,1.888,2.8,2.8,0,0,1-1.366-.031,4.224,4.224,0,0,1-1.248-.585,6.327,6.327,0,0,1-1.753-4.087,41.4,41.4,0,0,1-.267-6.682l-4.812,5.218q-2.378,2.574-4.605,4.782t-4.218,3.983a29.3,29.3,0,0,1-3.594,2.8,1.108,1.108,0,0,1-.475.247,1.3,1.3,0,0,1-.891-.056,1.109,1.109,0,0,1-.594-.61,1.6,1.6,0,0,1,.088-1.153,1.98,1.98,0,0,1,.8-.99,27.25,27.25,0,0,0,3.8-3.012q2.139-1.965,4.545-4.46t4.991-5.33q2.586-2.833,5.079-5.609a2.95,2.95,0,0,1,.06-.549,3.354,3.354,0,0,0,.059-.608c.039-.563.059-1.032.059-1.41v-.979a29.978,29.978,0,0,0-.03-3.024A17.784,17.784,0,0,0,183.332,98a4.493,4.493,0,0,0-.355-1.166,1.179,1.179,0,0,0-.446-.52.361.361,0,0,0-.475-.007,4.376,4.376,0,0,0-1.4,1.251q-.922,1.083-1.932,2.518t-1.99,2.93c-.652,1-1.179,1.822-1.574,2.475q-1.011,1.446-2.021,3.043a16.828,16.828,0,0,1-1.663,2.3,2.081,2.081,0,0,1-1.1.764,1.069,1.069,0,0,1-1.04-.2,1.113,1.113,0,0,1-.475-.943,1.943,1.943,0,0,1,.475-1.2c.119-.189.316-.47.594-.84s.574-.785.892-1.246.644-.941.98-1.445a15.444,15.444,0,0,0,.862-1.442q3.029-4.766,5.228-7.654T182,93.3a2.928,2.928,0,0,1,2.674.452,4.662,4.662,0,0,1,1.6,2.821,23.509,23.509,0,0,1,.356,5.774V103q3.388-3.71,5.792-6.249t4.129-4.149A26.034,26.034,0,0,1,199.4,90.22a4.243,4.243,0,0,1,1.96-.837,3.427,3.427,0,0,1,1.426.092,2.444,2.444,0,0,1,1.188.728,4.5,4.5,0,0,1,.772,3.88,1.822,1.822,0,0,1-.594,1.087,1.674,1.674,0,0,1-1.069.442,1.427,1.427,0,0,1-1.039-.447,1.208,1.208,0,0,1-.268-1.09,3.391,3.391,0,0,0,.09-1.262c-.059-.189-.128-.3-.208-.326a.16.16,0,0,0-.179-.092l-.237.035a8.21,8.21,0,0,0-1.9,1.393q-1.368,1.2-3.119,2.96t-3.772,3.938q-2.021,2.175-3.861,4.23-.535.589-1.069,1.179t-1.129,1.2q-.061,1.619-.089,3.466t.059,3.522a16.833,16.833,0,0,0,.385,2.945,3.371,3.371,0,0,0,.832,1.75.419.419,0,0,0,.357.043,7.419,7.419,0,0,0,3.148-2.138,50.392,50.392,0,0,0,4.1-4.645q2.2-2.774,4.575-6.153t4.693-6.707a2.1,2.1,0,0,1,1.1-.763A1.126,1.126,0,0,1,206.651,98.9Z" transform="translate(-36.817 -18.131)"/>
    <path id="路径_47" data-name="路径 47" d="M235.349,93.012q-1.248,2.579-2.377,4.982t-1.96,4.453q-.832,2.048-1.366,3.614a10.407,10.407,0,0,0-.594,2.407,10.878,10.878,0,0,0,2.524-1.673c1.049-.857,2.327-2.053,3.833-3.571s3.237-3.386,5.2-5.579,4.167-4.772,6.624-7.692a1.294,1.294,0,0,1,1.011-.529,1.665,1.665,0,0,1,1.129.31,1.751,1.751,0,0,1,.534,1.095,1.61,1.61,0,0,1-.357,1.161q-2.615,3.053-5.584,6.413t-5.822,6.228A57.716,57.716,0,0,1,232.7,109.5a10.556,10.556,0,0,1-4.485,2.309l-.118.019a2.032,2.032,0,0,1-1.486-.355q-.714-.475-.713-2.079a13.736,13.736,0,0,1,.654-3.14q.593-1.938,1.515-4.255t2.049-4.8q1.128-2.481,2.287-4.863t2.229-4.438q1.068-2.056,1.841-3.505-.475.051-.951.1a1.418,1.418,0,0,1-1.1-.288,1.231,1.231,0,0,1-.445-1.015,1.755,1.755,0,0,1,1.544-1.727q1.425-.16,2.851-.294c2.021-3.714,3.684-6.542,4.991-8.519a49.923,49.923,0,0,1,3.119-4.332,6.083,6.083,0,0,1,1.693-1.59,2.49,2.49,0,0,1,.772-.221,1.6,1.6,0,0,1,1.426.821,2.138,2.138,0,0,1,.209,1.069,6.018,6.018,0,0,1-.714,1.962c-.455.915-1.2,2.177-2.227,3.807s-2.456,3.825-4.278,6.622q2.555-.148,5.109-.194a1.464,1.464,0,0,1,1.1.432,1.485,1.485,0,0,1,.446,1.1,1.4,1.4,0,0,1-.446,1.072,1.584,1.584,0,0,1-1.1.43q-3.653.064-7.308.339-.952,1.5-2.049,3.2t-2.288,3.607q-.624.956-1.247,1.917A1.472,1.472,0,0,0,235.349,93.012Z" transform="translate(-56.631 -10.817)"/>
    <path id="路径_48" data-name="路径 48" d="M157.553,131.218a1.793,1.793,0,0,1-1.46-.729c-1.6-2.159.99-8.7,3.443-13.809a1.359,1.359,0,1,1,2.45,1.177,45.432,45.432,0,0,0-3.66,10.015c2.025-1.816,6.049-7,9.258-11.673a1.359,1.359,0,1,1,2.241,1.54c-4.207,6.125-9.746,13.435-12.238,13.479Zm.767-2.277Z" transform="translate(-34.113 -26.543)"/>
    <path id="路径_49" data-name="路径 49" d="M220.293,118.35a1.46,1.46,0,0,1-1.187-.592c-1.636-2.208,1.886-10.149,3.477-13.46a1.019,1.019,0,1,1,1.838.883c-2.2,4.585-3.8,9.306-3.761,10.924,1.773-1.191,6.335-6.988,9.945-12.244a1.02,1.02,0,0,1,1.68,1.156c-3.407,4.96-9.493,13.288-11.964,13.332Zm.457-1.8h0Z" transform="translate(-54.318 -22.639)"/>
    <path id="路径_50" data-name="路径 50" d="M57.878,166.477a81.5,81.5,0,0,1,8.568-4.2,37.51,37.51,0,0,1,12.148-2.021c10.5-.283,20.45,2.618,30.846,3.232,17.166,1.015,33.769-4.971,47.583-14.924a151.455,151.455,0,0,0,12.259-10.215c.817-.73-.388-1.928-1.2-1.2-9.337,8.345-19.076,15.849-30.931,20.325a67.253,67.253,0,0,1-28.8,4.243c-10.04-.758-19.6-3.433-29.756-3.159a39.241,39.241,0,0,0-12.6,2.082,83.56,83.56,0,0,0-8.974,4.375c-.973.5-.115,1.966.858,1.467Z" transform="translate(-2.402 -33.368)"/>
    <path id="路径_51" data-name="路径 51" d="M86.812,71.174a.849.849,0,0,1-.782-1.181A61.02,61.02,0,0,1,192.775,59.57a.85.85,0,1,1-1.407.953A59.32,59.32,0,0,0,87.595,70.655.85.85,0,0,1,86.812,71.174Z" transform="translate(-11.809 0)"/>
    <path id="路径_52" data-name="路径 52" d="M147.077,183.082a61.041,61.041,0,0,1-45.786-20.693.85.85,0,0,1,1.275-1.123,59.3,59.3,0,0,0,103.811-39.184.85.85,0,1,1,1.7,0A61.069,61.069,0,0,1,147.077,183.082Z" transform="translate(-16.651 -28.344)"/>
    <path id="路径_53" data-name="路径 53" d="M217.01,148.826" transform="translate(-53.783 -37.182)" fill="none" stroke="#000" stroke-linecap="round" stroke-linejoin="round" stroke-width="3"/>
    <g id="组_18" data-name="组 18" transform="translate(117.059 115.881)">
      <g id="组_11" data-name="组 11" transform="translate(0 24.449)">
        <path id="路径_54" data-name="路径 54" d="M155.248,198.063a.127.127,0,0,1-.152.111l-1.109-.17a.124.124,0,0,1-.08-.057l-2.552-4.359-.578,3.791a.127.127,0,0,1-.152.111l-1.275-.2a.126.126,0,0,1-.111-.151l.9-5.852a.126.126,0,0,1,.151-.111l1.266.194a.125.125,0,0,1,.081.057l2.4,4.175.555-3.633a.126.126,0,0,1,.152-.112l1.291.2a.124.124,0,0,1,.111.15Z" transform="translate(-149.134 -191.077)" fill="#040404"/>
        <path id="路径_55" data-name="路径 55" d="M155.071,198.23a.241.241,0,0,1-.038,0l-1.11-.17a.223.223,0,0,1-.147-.1l-2.412-4.12-.536,3.506a.227.227,0,0,1-.267.2l-1.276-.2a.226.226,0,0,1-.2-.266l.9-5.854a.23.23,0,0,1,.266-.2l1.267.194a.225.225,0,0,1,.148.1l2.262,3.932.512-3.346a.23.23,0,0,1,.267-.2l1.292.2a.226.226,0,0,1,.2.267l-.894,5.852A.228.228,0,0,1,155.071,198.23Zm-3.823-4.99,2.7,4.608,1.117.177c.022,0,.032,0,.036-.026l.894-5.852h0l-.026-.035-1.291-.2a.034.034,0,0,0-.035.026l-.6,3.922-2.546-4.428-1.274-.2c-.026,0-.032,0-.036.026l-.894,5.852c0,.026,0,.031.024.034l1.276.2c.021,0,.032,0,.036-.026Z" transform="translate(-149.086 -191.029)" fill="#040404"/>
      </g>
      <g id="组_12" data-name="组 12" transform="translate(11.848 26.815)">
        <path id="路径_56" data-name="路径 56" d="M171.389,196.875a1.4,1.4,0,0,1-.034.533.121.121,0,0,1-.094.058l-3.3.169c.022.423.7.9,1.231.875a1.894,1.894,0,0,0,1.431-.586.114.114,0,0,1,.168,0l.435.368a.148.148,0,0,1,.019.2,2.3,2.3,0,0,1-2.028,1.015,2.372,2.372,0,0,1-2.541-2.269v-.027a2.259,2.259,0,0,1,2.242-2.549A2.158,2.158,0,0,1,171.389,196.875Zm-3.492-.1,2.4-.122c-.028-.548-.544-.964-1.323-.924A1.159,1.159,0,0,0,167.9,196.779Z" transform="translate(-166.565 -194.558)" fill="#040404"/>
        <path id="路径_57" data-name="路径 57" d="M169.016,199.566a2.416,2.416,0,0,1-1.754-.7,2.564,2.564,0,0,1-.74-1.665v-.029a2.353,2.353,0,0,1,2.339-2.653,2.257,2.257,0,0,1,2.583,2.306h0a1.4,1.4,0,0,1-.044.582.231.231,0,0,1-.184.116l-3.184.163a1.257,1.257,0,0,0,1.1.678l.053,0a1.772,1.772,0,0,0,1.315-.557.218.218,0,0,1,.3-.006l.44.372a.248.248,0,0,1,.042.33,2.4,2.4,0,0,1-2.112,1.066Q169.091,199.567,169.016,199.566Zm.031-4.852c-.058,0-.116,0-.176,0a2.163,2.163,0,0,0-2.145,2.442v.029a2.354,2.354,0,0,0,.68,1.528,2.267,2.267,0,0,0,1.754.642,2.187,2.187,0,0,0,1.947-.967c.027-.048.014-.06,0-.073l-.432-.366a.073.073,0,0,0-.023-.012,1.981,1.981,0,0,1-1.453.621l-.052,0H169.1c-.578,0-1.264-.51-1.289-.973l0-.1.1,0,3.3-.169a1.336,1.336,0,0,0,.032-.484h0a2.27,2.27,0,0,0-.646-1.579A2.194,2.194,0,0,0,169.046,194.715Zm-1.294,2.124,0-.1a1.265,1.265,0,0,1,1.175-1.153,1.547,1.547,0,0,1,1.007.261.994.994,0,0,1,.422.759l0,.1-.1,0Zm1.279-1.054-.1,0a1.1,1.1,0,0,0-.976.837l2.18-.112a.8.8,0,0,0-.326-.5A1.311,1.311,0,0,0,169.031,195.785Z" transform="translate(-166.517 -194.51)" fill="#040404"/>
      </g>
      <g id="组_13" data-name="组 13" transform="translate(21.123 25.164)">
        <path id="路径_58" data-name="路径 58" d="M185.7,196.5a.164.164,0,0,1-.077.3l-1.1.252a.109.109,0,0,1-.106-.03l-1.211-1.129-.591,1.541a.11.11,0,0,1-.083.073l-1.086.249a.172.172,0,0,1-.2-.245l1.021-2.356-1.883-1.69a.166.166,0,0,1,.077-.3l1.128-.258a.12.12,0,0,1,.107.03l1.128,1.12.527-1.5a.119.119,0,0,1,.082-.073l1.086-.249a.169.169,0,0,1,.2.236l-.965,2.325Z" transform="translate(-180.211 -192.129)" fill="#040404"/>
        <path id="路径_59" data-name="路径 59" d="M181.346,197.814a.267.267,0,0,1-.2-.09.291.291,0,0,1-.043-.3l.994-2.293-1.828-1.641a.268.268,0,0,1,.122-.474l1.128-.258a.225.225,0,0,1,.2.052l1.02,1.013.474-1.348a.222.222,0,0,1,.157-.139l1.085-.248a.279.279,0,0,1,.278.088.275.275,0,0,1,.039.287l-.937,2.257,1.893,1.654a.268.268,0,0,1,.1.269.284.284,0,0,1-.22.207l-1.1.252a.218.218,0,0,1-.194-.052l-1.1-1.029-.537,1.4a.215.215,0,0,1-.155.137l-1.086.248A.337.337,0,0,1,181.346,197.814Zm.226-4.853-1.141.256a.076.076,0,0,0-.063.048.082.082,0,0,0,.031.075l1.938,1.739-1.05,2.423a.089.089,0,0,0,.008.088.071.071,0,0,0,.077.016l1.086-.248.655-1.692,1.321,1.232,1.117-.247a.081.081,0,0,0,.067-.054.065.065,0,0,0-.031-.066l0,0-2.005-1.752.993-2.393a.071.071,0,0,0-.006-.077.073.073,0,0,0-.077-.02l-1.086.248-.589,1.658Z" transform="translate(-180.163 -192.081)" fill="#040404"/>
      </g>
      <g id="组_14" data-name="组 14" transform="translate(29.798 21.328)">
        <path id="路径_60" data-name="路径 60" d="M196.186,187.606a.125.125,0,0,1,.173.071l.326.784a.125.125,0,0,1-.072.173l-1.24.515.811,1.951c.136.326.417.381.793.225a1.247,1.247,0,0,0,.6-.461.134.134,0,0,1,.162-.068l.62.249a1.949,1.949,0,0,1-1.349,1.471,1.728,1.728,0,0,1-1.086.154,1.477,1.477,0,0,1-.919-.948l-.859-2.064-.563.234a.125.125,0,0,1-.173-.071l-.326-.784a.125.125,0,0,1,.071-.173l.563-.234-.6-1.444a.127.127,0,0,1,.072-.174l1-.413a.126.126,0,0,1,.173.071l.6,1.444Z" transform="translate(-192.973 -186.485)" fill="#040404"/>
        <path id="路径_61" data-name="路径 61" d="M196.159,192.755a1.467,1.467,0,0,1-.3-.032,1.568,1.568,0,0,1-.994-1.009l-.82-1.97-.468.2a.227.227,0,0,1-.307-.127l-.326-.783a.228.228,0,0,1,.127-.307l.469-.2-.562-1.35a.229.229,0,0,1,.126-.307l1-.413a.227.227,0,0,1,.307.126l.561,1.351,1.129-.47a.241.241,0,0,1,.181,0,.238.238,0,0,1,.126.13l.326.783a.227.227,0,0,1-.126.307l-1.147.476.772,1.856a.375.375,0,0,0,.2.22.611.611,0,0,0,.462-.05,1.145,1.145,0,0,0,.555-.419.237.237,0,0,1,.28-.112l.629.252-.039.1.094.035-.006.024a2.141,2.141,0,0,1-1.4,1.506A2.275,2.275,0,0,1,196.159,192.755Zm-2-3.278.9,2.159a1.373,1.373,0,0,0,.849.888,1.6,1.6,0,0,0,1.023-.15,1.959,1.959,0,0,0,1.267-1.315l-.537-.215c-.011,0-.025,0-.035.02a1.318,1.318,0,0,1-.655.508.8.8,0,0,1-.618.051.573.573,0,0,1-.307-.331l-.85-2.045,1.335-.554.016-.04-.326-.783-.039-.016-1.318.547-.64-1.538a.033.033,0,0,0-.039-.016l-1,.414c-.018.007-.027.016-.016.041l.64,1.538-.658.273c-.019.008-.027.016-.017.041l.326.782.039.017Z" transform="translate(-192.925 -186.437)" fill="#040404"/>
      </g>
      <g id="组_15" data-name="组 15" transform="translate(42.574 13.96)">
        <path id="路径_62" data-name="路径 62" d="M213.6,176.524a.126.126,0,0,1-.021.186l-.927.725a.125.125,0,0,1-.186-.023l-.568-.724a.126.126,0,0,1,.023-.187l.926-.724a.126.126,0,0,1,.187.022Zm3.159,4.107a.124.124,0,0,1-.023.186l-.835.654a.125.125,0,0,1-.186-.022l-2.739-3.47a.125.125,0,0,1,.022-.186l.849-.665a.125.125,0,0,1,.186.023Z" transform="translate(-211.769 -175.645)" fill="#040404"/>
        <path id="路径_63" data-name="路径 63" d="M215.773,181.556a.234.234,0,0,1-.182-.092l-2.739-3.47a.227.227,0,0,1,.039-.329l.85-.665a.226.226,0,0,1,.173-.051.234.234,0,0,1,.156.092l2.726,3.481a.226.226,0,0,1-.041.328l-.835.654A.235.235,0,0,1,215.773,181.556Zm-1.907-4.4-.849.665a.036.036,0,0,0-.005.043l2.739,3.469c.015.018.024.02.043.005l.835-.654c.018-.015.02-.024.005-.044l-2.726-3.48Zm-1.342.36a.23.23,0,0,1-.182-.092l-.568-.724a.232.232,0,0,1-.051-.174.24.24,0,0,1,.091-.156l.926-.724a.244.244,0,0,1,.173-.052.231.231,0,0,1,.156.092l.565.724a.227.227,0,0,1-.038.328l-.927.726A.244.244,0,0,1,212.524,177.521Zm.342-1.71-.926.725a.034.034,0,0,0-.005.043l.568.725c.014.017.024.02.043,0l.926-.725c.015-.012.02-.022,0-.043l-.565-.723Z" transform="translate(-211.721 -175.598)" fill="#040404"/>
      </g>
      <g id="组_16" data-name="组 16" transform="translate(48.896 8.335)">
        <path id="路径_64" data-name="路径 64" d="M226.435,168.366l1.648,1.508a.125.125,0,0,1,.008.188l-.7.762a.126.126,0,0,1-.187.009c-.71-.637-1.6-1.448-1.6-1.448-.685-.626-1.332-.7-1.886-.1a1.825,1.825,0,0,0-.262,1.843l1.89,1.729a.124.124,0,0,1,.008.187l-.7.762a.124.124,0,0,1-.187.009l-3.258-2.98a.125.125,0,0,1-.008-.187l.7-.763a.126.126,0,0,1,.187-.008l.593.543a2.889,2.889,0,0,1,.783-2.361C224.407,167.038,225.483,167.5,226.435,168.366Z" transform="translate(-221.07 -167.372)" fill="#040404"/>
        <path id="路径_65" data-name="路径 65" d="M224.519,173.908a.235.235,0,0,1-.159-.065l-3.258-2.981a.227.227,0,0,1-.014-.331l.7-.763a.229.229,0,0,1,.331-.016l.39.357a3.182,3.182,0,0,1,.843-2.168c.841-.918,1.888-.817,3.108.3l1.648,1.508a.227.227,0,0,1,.015.331l-.7.763a.229.229,0,0,1-.33.015c-.71-.637-1.6-1.448-1.6-1.448a1.61,1.61,0,0,0-.931-.484.989.989,0,0,0-.812.381,1.741,1.741,0,0,0-.248,1.718l1.869,1.71a.236.236,0,0,1,.079.164.233.233,0,0,1-.065.168l-.7.762a.235.235,0,0,1-.162.079Zm-2.562-4.014a.032.032,0,0,0-.022.013l-.7.763c-.016.018-.015.027,0,.044l3.257,2.98a.037.037,0,0,0,.043,0l.7-.763.067-.118-.069.075-1.91-1.746-.008-.026a1.949,1.949,0,0,1,.284-1.944,1.213,1.213,0,0,1,.976-.447,1.805,1.805,0,0,1,1.054.538s.886.81,1.6,1.448c.018.015.029.014.044,0l.7-.762c.016-.018.015-.028,0-.044l-1.648-1.508c-1.139-1.041-2.062-1.143-2.821-.311a2.775,2.775,0,0,0-.76,2.262l.105.353-.865-.792A.03.03,0,0,0,221.957,169.894Z" transform="translate(-221.022 -167.322)" fill="#040404"/>
      </g>
      <g id="组_17" data-name="组 17" transform="translate(56.351)">
        <path id="路径_66" data-name="路径 66" d="M234.162,155.213a.138.138,0,0,1,.166.1l.221.944a.127.127,0,0,1-.1.158,1.746,1.746,0,0,0-.96.791,1.274,1.274,0,1,0,2.2,1.275,1.91,1.91,0,0,0,.275-1.23.123.123,0,0,1,.088-.143l.854-.244a.124.124,0,0,1,.166.1,2.672,2.672,0,0,1-.391,2.083,2.5,2.5,0,0,1-3.423,1.005l-.023-.014a2.517,2.517,0,0,1-.667-3.537A2.637,2.637,0,0,1,234.162,155.213Z" transform="translate(-232.037 -155.107)" fill="#040404"/>
        <path id="路径_67" data-name="路径 67" d="M234.4,160.439a2.342,2.342,0,0,1-1.232-.347l-.023-.014a2.625,2.625,0,0,1-.7-3.677,2.77,2.77,0,0,1,1.646-1.335h0a.245.245,0,0,1,.182.029.234.234,0,0,1,.107.148l.221.944a.227.227,0,0,1-.164.278,1.656,1.656,0,0,0-.9.748,1.119,1.119,0,0,0-.03,1.148,1.253,1.253,0,0,0,1.036.667,1.159,1.159,0,0,0,1.025-.647,1.82,1.82,0,0,0,.26-1.166.225.225,0,0,1,.165-.254l.85-.243a.233.233,0,0,1,.188.022.228.228,0,0,1,.107.162,2.981,2.981,0,0,1-2.736,3.538Zm-.257-5.175a2.543,2.543,0,0,0-1.525,1.244,2.424,2.424,0,0,0,.634,3.4l.022.013a2.4,2.4,0,0,0,3.284-.971,2.576,2.576,0,0,0,.378-2.009l-.012-.023H236.9l-.854.245c-.012,0-.016.015-.014.03a2.03,2.03,0,0,1-.289,1.3,1.383,1.383,0,0,1-1.173.744h-.031a1.459,1.459,0,0,1-1.21-.773,1.321,1.321,0,0,1,.035-1.353,1.85,1.85,0,0,1,1.015-.835c.036-.012.033-.024.03-.037l-.222-.945a.034.034,0,0,0-.016-.021A.033.033,0,0,0,234.142,155.264Z" transform="translate(-231.991 -155.059)" fill="#040404"/>
      </g>
    </g>
    <g id="组_20" data-name="组 20" transform="translate(119.106 46.989)">
      <g id="组_19" data-name="组 19">
        <path id="路径_68" data-name="路径 68" d="M164.838,76.887l-.014-.008a.456.456,0,0,0-.45.793L178.16,85.5l.373-.188Z" transform="translate(-155.955 -61.108)"/>
        <path id="路径_69" data-name="路径 69" d="M168.026,65.957l-.01-.01a.456.456,0,0,0-.641.648l14.289,14.139.266-.127Z" transform="translate(-156.947 -57.583)"/>
        <path id="路径_70" data-name="路径 70" d="M187.849,60.77a.456.456,0,0,0,.436.343.449.449,0,0,0,.119-.015.455.455,0,0,0,.328-.554l-1.419-5.524a.455.455,0,0,0-.882.227Z" transform="translate(-163.089 -54.016)"/>
        <path id="路径_71" data-name="路径 71" d="M166.11,87.515l-.018,0a.456.456,0,0,0-.227.883l8.85,2.276c.285-.105.56-.21.822-.313Z" transform="translate(-156.397 -64.527)"/>
        <path id="路径_72" data-name="路径 72" d="M205.549,64.71a.464.464,0,0,0,.118.017.455.455,0,0,0,.443-.333l2.046-7.331a.455.455,0,1,0-.877-.245l-2.047,7.331A.456.456,0,0,0,205.549,64.71Z" transform="translate(-169.11 -54.595)"/>
        <path id="路径_73" data-name="路径 73" d="M152.43,84.565l7.03,1.962a.442.442,0,0,0,.118.016.455.455,0,0,0,.127-.894l-7.03-1.962a.456.456,0,0,0-.245.878Z" transform="translate(-152.097 -63.302)"/>
        <path id="路径_74" data-name="路径 74" d="M153.9,94.374h-.009a.455.455,0,1,0,0,.911l9.307-.029c.789-.186,1.611-.387,2.447-.6Z" transform="translate(-152.524 -66.73)"/>
        <path id="路径_75" data-name="路径 75" d="M230.868,73.077a.456.456,0,0,0-.628-.146l-8.84,5.5,9.288-4.711.035-.02A.455.455,0,0,0,230.868,73.077Z" transform="translate(-174.294 -59.84)"/>
        <path id="路径_76" data-name="路径 76" d="M214.588,62.194l.007-.013a.456.456,0,1,0-.792-.451l-8.442,14.832.375.048Z" transform="translate(-169.157 -56.201)"/>
        <path id="路径_77" data-name="路径 77" d="M204,72.137l.007-.023a.456.456,0,0,0-.884-.222l-1.94,7.721c.18-.018.357-.03.53-.036Z" transform="translate(-167.82 -59.419)"/>
        <path id="路径_78" data-name="路径 78" d="M220.17,69.5l-9.865,10,.544.066,9.958-9.418.012-.012a.456.456,0,1,0-.649-.64Z" transform="translate(-170.741 -58.72)"/>
        <path id="路径_79" data-name="路径 79" d="M178.739,62.437l-.007-.014a.456.456,0,1,0-.786.461l9.222,15.728.264-.115Z" transform="translate(-160.356 -56.425)"/>
        <path id="路径_80" data-name="路径 80" d="M189.9,65.114l0-.018a.456.456,0,0,0-.878.245l3.7,13.28.324-.12Z" transform="translate(-163.919 -57.246)"/>
        <path id="路径_81" data-name="路径 81" d="M198.463,54.171v-.014a.456.456,0,0,0-.911,0l.107,20.2c.092-.026.186-.052.277-.076Z" transform="translate(-166.656 -53.704)"/>
      </g>
    </g>
  </g>
</svg>
