<?xml version="1.0" encoding="utf-8"?>
<!-- Generator: Adobe Illustrator 21.0.2, SVG Export Plug-In . SVG Version: 6.00 Build 0)  -->
<svg version="1.1" id="レイヤー_1" xmlns="http://www.w3.org/2000/svg" xmlns:xlink="http://www.w3.org/1999/xlink" x="0px"
	 y="0px" viewBox="0 0 85 15" style="enable-background:new 0 0 85 15;" xml:space="preserve">
<style type="text/css">
	.st0{fill:#FFFFFF;}
</style>
<g>
	<g>
		<path class="st0" d="M28.1,6.2c0-0.7,0-1.4,0-1.9c0-0.2,0-0.2-0.2-0.2c-0.6,0-1.5,0-2.3,0h-2.9c-0.8,0-1.5,0-2.1,0
			c-0.1,0-0.1,0-0.1,0.2c0,0.7,0,1.3,0,2v2.9c0,0.9,0,1.8,0,2.4c0,0.1,0,0.2,0.3,0.2c0.3,0,0.6,0,0.9,0c0.2,0,0.3,0,0.3-0.2v-0.7
			h4.7v0.6c0,0.2,0,0.2,0.2,0.2c0.4,0,0.7,0,1.1,0c0.2,0,0.2,0,0.2-0.2c0-0.6-0.1-1.2-0.1-2.3V6.2z M26.7,9.5H22V5.3h4.7V9.5z
			 M39.8,3c-0.1-0.1-0.1-0.1-0.2,0L39,3.4c0.5,0.4,0.9,0.8,1.2,1.4c0.1,0.1,0.1,0.1,0.2,0l0.5-0.4c0.1-0.1,0.1-0.1,0-0.2
			C40.6,3.7,40.1,3.2,39.8,3z M39.1,4.4c-0.1,0-0.1-0.1-0.2-0.1c-0.1,0-0.1,0-0.2,0c-0.1,0.1-0.3,0.1-0.6,0.1l-2.2,0
			c0.1-0.2,0.3-0.4,0.4-0.6c0.1-0.1,0.2-0.3,0.3-0.3c0.1-0.1,0.1-0.1,0.1-0.2s0-0.1-0.1-0.2c-0.3-0.2-0.7-0.4-1.4-0.6
			c-0.1,0.6-0.3,0.9-0.7,1.6c-0.7,1.2-1.7,2.3-3.2,3.6c0.4,0.1,0.9,0.3,1.2,0.5c0.1,0,0.1,0.1,0.2,0.1c0.1,0,0.2,0,0.3-0.1
			c0.7-0.6,1.3-1.2,2.3-2.5l2.9-0.1c-0.7,1.5-1.3,2.4-2.2,3.4c-1.2,1.3-2.1,2-4,3.1c0.5,0.1,0.8,0.3,1.1,0.6
			c0.1,0.1,0.2,0.1,0.3,0.1c0.1,0,0.1,0,0.2-0.1c1.2-0.7,2.6-1.8,3.6-3c0.8-0.9,1.6-2.1,2.4-3.7c0.1-0.2,0.2-0.4,0.4-0.5
			C40,5.5,40,5.5,40,5.4c0-0.1,0-0.2-0.2-0.3C39.6,4.9,39.4,4.6,39.1,4.4z M40.8,2.2c-0.1-0.1-0.1-0.1-0.2,0l-0.6,0.4
			C40.6,3,40.9,3.4,41.3,4c0,0.1,0.1,0.1,0.2,0l0.5-0.4C42,3.6,42,3.5,42,3.4C41.7,3,41.3,2.5,40.8,2.2z M50.2,2.5
			C50,3,49.9,3.2,49.5,3.7c-0.7,0.9-1.6,1.7-2.6,2.5c-1.1,0.9-2.1,1.6-3.8,2.5c0.4,0.2,0.8,0.4,1,0.7c0.1,0.1,0.2,0.1,0.3,0.1
			c0.1,0,0.1,0,0.2,0c1-0.5,2.2-1.4,3.3-2.3V10c0,0.8,0,1.6,0,2.5c0,0.1,0,0.2,0.2,0.2c0.4,0,0.8,0,1.2,0c0.1,0,0.2,0,0.2-0.2
			c0-1,0-1.7,0-2.5v-4c0.5-0.5,0.9-0.9,1.4-1.5c0.3-0.3,0.5-0.5,0.7-0.7c0.1-0.1,0.2-0.2,0.2-0.3c0-0.1,0-0.1-0.1-0.2
			C51.3,3.1,50.8,2.8,50.2,2.5z M64.4,6c-0.2-0.4-0.3-0.8-0.3-1.4c-1,1.3-1.8,2.1-3.3,3.3c-1.2,1-2,1.5-3.5,2.2
			c-0.6,0.3-1,0.4-1.6,0.6c0.3,0.5,0.7,1,1,1.3c0.1,0.1,0.1,0.1,0.2,0.1c0.1,0,0.1,0,0.2-0.1c0.1-0.1,0.3-0.2,0.8-0.6
			c1.6-0.9,2.6-1.6,3.6-2.4c1.1-0.8,2.1-1.8,2.8-2.5c0.1-0.2,0.2-0.3,0.2-0.4C64.4,6.1,64.4,6.1,64.4,6z M58,6.7c0,0,0.1,0,0.1-0.1
			c0.2-0.2,0.6-0.7,0.7-0.9c0-0.1,0.1-0.1,0.1-0.2c0,0,0-0.1-0.1-0.2c-0.7-0.6-1.7-1.4-2.3-1.7c-0.1,0-0.1-0.1-0.2-0.1
			c-0.1,0-0.1,0-0.2,0.1C56,4,55.7,4.4,55.4,4.7c0.9,0.5,1.7,1.2,2.4,2C57.9,6.7,58,6.7,58,6.7z"/>
	</g>
</g>
</svg>
