<?xml version="1.0" encoding="utf-8"?>
<!-- Generator: Adobe Illustrator 21.0.2, SVG Export Plug-In . SVG Version: 6.00 Build 0)  -->
<svg version="1.1" id="レイヤー_1" xmlns="http://www.w3.org/2000/svg" xmlns:xlink="http://www.w3.org/1999/xlink" x="0px"
	 y="0px" viewBox="0 0 85 15" style="enable-background:new 0 0 85 15;" xml:space="preserve">
<style type="text/css">
	.st0{fill:#FFFFFF;}
</style>
<g>
	<g>
		<path class="st0" d="M9.9,3.9c-0.1,0-0.2-0.1-0.2-0.1c-0.1,0-0.1,0-0.2,0C9.3,4,9.2,4,8.8,4H4.5C3.4,4,2.8,4,2.2,3.9
			c0,0.3,0.1,1,0.1,1.2c0,0.2,0.1,0.3,0.2,0.2c0.5,0,1.2-0.1,2-0.1h4.3c-0.5,1.3-1.1,2.4-2,3.4c-1.1,1.3-2.2,2.1-3.9,3
			c0.4,0.2,0.8,0.4,1.1,0.7c0.1,0.1,0.2,0.1,0.3,0.1c0.1,0,0.2,0,0.3-0.1c1.2-0.7,2.4-1.7,3.4-2.9c1-1.2,1.7-2.5,2.3-3.9
			c0.1-0.2,0.2-0.4,0.3-0.5c0.1-0.1,0.2-0.2,0.2-0.3c0-0.1,0-0.1-0.1-0.2C10.5,4.4,10.2,4.1,9.9,3.9z M21.1,3.1
			c-0.4-0.1-1-0.2-1.6-0.3c0.1,0.5,0.1,0.9,0.1,2V7c0,1.5-0.3,2.5-0.8,3.2c-0.6,0.8-1.6,1.4-2.9,1.8c0.4,0.2,0.7,0.4,1,0.7
			c0.1,0.1,0.2,0.1,0.3,0.1c0.1,0,0.2,0,0.3-0.1c1-0.4,2.1-1.1,2.6-1.9c0.7-0.9,1-2.1,1-3.9V4.8c0-0.7,0-1.1,0.1-1.3
			c0-0.1,0-0.1,0-0.2C21.2,3.2,21.2,3.1,21.1,3.1z M16.9,8.7c0-0.4,0-0.9,0-1.5V4.8c0-0.6,0-0.9,0.1-1.1c0-0.1,0-0.1,0-0.2
			c0-0.1-0.1-0.2-0.2-0.2c-0.3-0.1-1-0.2-1.5-0.3c0.1,0.5,0.1,0.9,0.1,1.8v2.4c0,0.5,0,1.2,0,1.6c0,0.1,0.1,0.2,0.2,0.2h1
			C16.8,9,16.9,8.9,16.9,8.7z M34.6,7.1c-0.9,0-1.8,0-2.8,0h-3.9c-1.2,0-1.8,0-2.6-0.1c0,0.6,0.1,1.2,0.2,1.5c0,0.2,0.1,0.3,0.3,0.3
			c0.1,0,0.6-0.1,1.8-0.1h4.3c0.9,0,1.8,0,2.7,0c0.2,0,0.2,0,0.2-0.2c0-0.4,0-0.8,0-1.1C34.8,7.1,34.7,7.1,34.6,7.1z M44.9,4.3
			c-0.1-0.1-0.2-0.1-0.2-0.1s-0.1,0-0.2,0.1c-0.2,0.1-0.3,0.2-0.7,0.2l-2.1,0c0.2-0.3,0.3-0.4,0.4-0.6c0.1-0.1,0.1-0.2,0.3-0.3
			c0.1-0.1,0.1-0.2,0.1-0.2c0-0.1,0-0.1-0.1-0.2c-0.4-0.2-1-0.4-1.4-0.6c-0.1,0.5-0.3,0.8-0.6,1.5c-0.8,1.3-1.7,2.4-3.4,3.8
			c0.4,0.2,0.7,0.3,1,0.6C37.9,8.5,38,8.5,38,8.5c0.1,0,0.2,0,0.2-0.1c0.8-0.6,1.6-1.4,2.6-2.7l3-0.1C43.4,6.5,43,7.3,42.4,8
			c-0.6-0.4-1.1-0.8-1.5-1c0,0-0.1,0-0.1,0c-0.1,0-0.1,0-0.2,0.1c-0.3,0.3-0.5,0.6-0.8,0.9c0.7,0.4,1.3,0.8,1.7,1.1
			c-1.4,1.4-2.6,2.3-4.4,3.3c0.4,0.1,0.8,0.3,1.1,0.6c0.1,0.1,0.2,0.1,0.2,0.1c0.1,0,0.2,0,0.3-0.1c1.4-0.7,2.6-1.7,3.8-3
			c0.4,0.3,0.9,0.8,1.2,1.2c0,0,0.1,0.1,0.1,0.1c0,0,0.1,0,0.1-0.1c0.2-0.2,0.6-0.6,0.7-0.8c0,0,0.1-0.1,0.1-0.2
			c0-0.1,0-0.1-0.1-0.2c-0.3-0.4-0.8-0.8-1.3-1.2c0.7-0.9,1.2-1.9,1.8-2.9c0.1-0.2,0.2-0.3,0.4-0.5c0.1-0.1,0.1-0.2,0.1-0.2
			c0-0.1,0-0.1-0.1-0.2C45.5,4.7,45.1,4.4,44.9,4.3z M46.6,2C46.5,2,46.5,2,46.4,2l-0.6,0.4c0.5,0.4,0.9,0.9,1.2,1.4
			c0,0.1,0.1,0.1,0.2,0l0.5-0.4c0.1-0.1,0.1-0.1,0-0.2C47.5,2.8,47,2.4,46.6,2z M45.5,2.8c-0.1-0.1-0.1-0.1-0.2,0l-0.6,0.4
			c0.5,0.4,0.9,0.8,1.2,1.4c0.1,0.1,0.1,0.1,0.2,0l0.5-0.4c0.1-0.1,0.1-0.1,0-0.2C46.3,3.6,45.9,3.1,45.5,2.8z M55.9,2.6
			c-0.2,0.5-0.3,0.8-0.8,1.2c-0.7,0.9-1.6,1.7-2.6,2.5c-1.1,0.9-2.1,1.6-3.8,2.5c0.4,0.2,0.8,0.4,1,0.7C50,9.6,50,9.6,50.1,9.6
			c0.1,0,0.1,0,0.2,0c1-0.5,2.2-1.4,3.3-2.3v2.8c0,0.8,0,1.6,0,2.5c0,0.1,0,0.2,0.2,0.2c0.4,0,0.8,0,1.2,0c0.1,0,0.2,0,0.2-0.2
			c0-1,0-1.7,0-2.5v-4c0.5-0.5,0.9-0.9,1.4-1.5C56.8,4.2,57,4,57.2,3.9c0.1-0.1,0.2-0.2,0.2-0.3c0-0.1,0-0.1-0.1-0.2
			C57,3.2,56.5,2.9,55.9,2.6z M69.5,4.2c-0.1-0.1-0.2-0.1-0.2-0.1c-0.1,0-0.1,0-0.2,0.1c-0.1,0.1-0.3,0.2-0.8,0.3l-3.4,0.9l-0.3-1
			c-0.1-0.6-0.2-0.9-0.2-1.2c0-0.3-0.1-0.4-0.2-0.4c-0.5,0-1.1,0.1-1.6,0.1c0.3,0.5,0.4,0.8,0.6,1.5l0.4,1.4l-1,0.3
			c-0.9,0.2-1.5,0.4-2.3,0.5c0.2,0.5,0.3,0.9,0.5,1.2C60.8,7.9,60.9,8,61,8c0.1,0,0.1,0,0.2-0.1c0.5-0.2,1.2-0.4,1.7-0.6l1-0.3
			l0.8,2.9c0.2,0.9,0.5,2,0.6,2.6c0,0.2,0.1,0.2,0.3,0.1c0.3-0.1,0.6-0.1,0.9-0.3c0.2,0,0.2-0.2,0.2-0.3c-0.2-0.6-0.5-1.9-0.7-2.6
			l-0.7-2.9l3.3-0.9c-0.5,1-0.9,1.5-1.7,2.4c0.4,0.1,0.8,0.2,1,0.4C67.9,8.6,68,8.7,68,8.7c0.1,0,0.1,0,0.2-0.1
			c0.5-0.6,1.2-1.5,1.8-2.8c0.1-0.1,0.2-0.2,0.3-0.3c0.1-0.1,0.1-0.2,0.1-0.2c0-0.1,0-0.1-0.1-0.2C70.2,4.7,69.7,4.4,69.5,4.2z
			 M82.7,7.8c-0.2-0.4-0.3-0.8-0.4-1.2c-0.7,0.9-1.4,1.5-2.1,2c-0.6,0.4-1.1,0.8-1.7,1.1v-4c0-0.9,0-1.1,0.1-1.3
			c0.1-0.1,0.1-0.2,0.1-0.3c0-0.1-0.1-0.2-0.2-0.2c-0.4-0.1-1-0.2-1.5-0.3c0.1,0.6,0.1,1,0.1,2.1v3.8c0,0.6,0,0.8-0.1,0.9
			c0,0.1,0,0.1,0,0.2c0,0.1,0,0.1,0.1,0.3c0.2,0.2,0.5,0.6,0.7,0.7c0.1,0.1,0.2,0.1,0.3,0.1c0.1,0,0.2,0,0.2-0.1
			c0.1-0.1,0.1-0.1,0.3-0.3c0.8-0.5,1.5-1,2.1-1.4c0.6-0.5,1.2-1,1.8-1.6c0.1-0.1,0.2-0.2,0.2-0.3C82.8,8,82.7,7.9,82.7,7.8z
			 M75.9,4.7c-0.3-0.1-0.8-0.2-1.5-0.3c0.1,0.4,0.1,0.6,0.1,1c0,1.9-0.2,2.6-0.5,3.4c-0.4,0.9-1.1,1.7-2,2.4c0.4,0.2,0.7,0.3,1,0.5
			c0.1,0.1,0.2,0.1,0.2,0.1c0.1,0,0.2-0.1,0.3-0.2c0.9-0.7,1.4-1.5,1.7-2.3c0.4-0.9,0.6-2,0.6-3.5c0-0.3,0-0.6,0.1-0.8
			C76.1,4.9,76.1,4.7,75.9,4.7z"/>
	</g>
</g>
</svg>
