<?xml version="1.0" encoding="utf-8"?>
<!-- Generator: Adobe Illustrator 21.0.2, SVG Export Plug-In . SVG Version: 6.00 Build 0)  -->
<svg version="1.1" id="レイヤー_1" xmlns="http://www.w3.org/2000/svg" xmlns:xlink="http://www.w3.org/1999/xlink" x="0px"
	 y="0px" viewBox="0 0 85 15" style="enable-background:new 0 0 85 15;" xml:space="preserve">
<style type="text/css">
	.st0{fill:#FFFFFF;}
</style>
<g>
	<g>
		<path class="st0" d="M26.9,2.8c-0.1,0.6-0.2,0.9-0.5,1.5c-0.4,0.8-0.6,1.3-1.2,2.1c-0.7-0.5-1.5-0.9-2.1-1.3c0,0-0.1,0-0.1,0
			c0,0-0.1,0-0.1,0.1c-0.2,0.2-0.4,0.5-0.8,1c1,0.5,1.6,0.9,2.3,1.4c-1.3,1.7-2.7,2.8-4.5,3.9c0.3,0.1,0.7,0.4,1.1,0.7
			c0.1,0.1,0.1,0.1,0.2,0.1s0.2,0,0.3-0.1c1.4-0.9,2.7-2,4.1-3.7c0.5,0.4,1,0.9,1.6,1.6c0.1,0.1,0.1,0.1,0.2,0.1c0,0,0.1,0,0.1-0.1
			c0.3-0.3,0.5-0.5,0.7-0.9c0-0.1,0.1-0.1,0.1-0.2c0-0.1,0-0.1-0.1-0.2c-0.8-0.8-1.1-1.1-1.8-1.6c0.5-0.7,0.9-1.5,1.4-2.4
			c0.3-0.5,0.4-0.7,0.5-0.8c0.1-0.1,0.1-0.2,0.1-0.3c0-0.1,0-0.1-0.1-0.2C28.1,3.3,27.5,3,26.9,2.8z M41.4,9.4
			c-0.6,0-1.4,0.1-2.7,0.1h-4.4c-0.8,0-1.6,0-2.5-0.1c0,0.6,0.1,1,0.1,1.3c0,0.2,0.1,0.2,0.2,0.2c0.6,0,1.4-0.1,2.2-0.1h4.5
			c0.8,0,2.1,0,2.6,0c0.2,0,0.2-0.1,0.2-0.3c0-0.3,0-0.7,0-1C41.6,9.4,41.5,9.4,41.4,9.4z M33.5,5.8c0.6,0,1.1,0,1.8,0h2.4
			c0.8,0,1.5,0,2.1,0C40,5.8,40,5.7,40,5.5c0-0.3,0-0.7,0-1.1c0-0.1,0-0.2-0.1-0.2c-0.5,0-1.2,0.1-2.2,0.1h-2.4c-0.7,0-1.3,0-2-0.1
			c0,0.5,0,0.9,0.1,1.3C33.4,5.7,33.4,5.8,33.5,5.8z M52.3,10.5c-0.5,0-1,0-1.5,0h-0.6L50.7,8c0-0.3,0.1-0.4,0.2-0.6
			C51,7.3,51,7.3,51,7.2s0-0.1-0.1-0.2c-0.2-0.2-0.5-0.5-0.7-0.7c-0.1,0-0.1-0.1-0.2-0.1c0,0-0.1,0-0.1,0c-0.2,0.1-0.3,0.1-0.7,0.1
			h-1.7c-0.5,0-0.9,0-1.7-0.1c0,0.4,0,0.8,0.1,1c0,0.2,0.1,0.2,0.2,0.2c0.3,0,0.9,0,1.3,0h1.9L49,10.5h-2.8c-0.6,0-1,0-1.7,0
			c0,0.4,0,0.8,0.1,1c0,0.2,0.1,0.2,0.2,0.2c0.6,0,1.1,0,1.5,0h4.4c0.6,0,1.1,0,1.7,0c0.2,0,0.2,0,0.2-0.2c0-0.2,0-0.5,0-0.8
			C52.6,10.5,52.5,10.5,52.3,10.5z M65,7c0-0.1,0-0.2-0.2-0.2c-0.9,0-1.8,0-2.8,0h-3.9c-1.2,0-1.8,0-2.6-0.1c0,0.6,0.1,1.2,0.2,1.5
			c0,0.2,0.1,0.3,0.3,0.3c0.1,0,0.6-0.1,1.8-0.1h4.3c0.9,0,1.8,0,2.7,0c0.2,0,0.2,0,0.2-0.2C65,7.8,65,7.4,65,7z"/>
	</g>
</g>
</svg>
