<?xml version="1.0" encoding="utf-8"?>
<!-- Generator: Adobe Illustrator 21.0.2, SVG Export Plug-In . SVG Version: 6.00 Build 0)  -->
<svg version="1.1" id="レイヤー_1" xmlns="http://www.w3.org/2000/svg" xmlns:xlink="http://www.w3.org/1999/xlink" x="0px"
	 y="0px" viewBox="0 0 85 15" style="enable-background:new 0 0 85 15;" xml:space="preserve">
<style type="text/css">
	.st0{fill:#FFFFFF;}
</style>
<g>
	<g>
		<path class="st0" d="M29.6,8c-0.1,0-0.5,0-1.6,0h-6.4c-1.1,0-1.5,0-1.6,0c-0.1,0-0.1,0-0.1,0.1V9c0,0.1,0,0.1,0.1,0.1
			c0.1,0,0.5,0,1.6,0h1.2c-0.3,0.7-0.6,1.5-1.1,2.3c-0.1,0-0.3,0-0.4,0c-0.5,0-0.9,0-1.3,0c0.1,0.4,0.1,0.8,0.3,1.2
			c0,0.1,0.1,0.2,0.2,0.2c0.1,0,0.1,0,0.2-0.1c0.1,0,0.2-0.1,0.4-0.1c2-0.2,4.5-0.4,6.5-0.6c0.2,0.3,0.4,0.6,0.6,0.9
			c0,0.1,0.1,0.1,0.1,0.1s0.1,0,0.1-0.1l0.8-0.5c0.1-0.1,0.1-0.1,0.1-0.2c-0.7-1.1-1.4-1.9-2.2-2.8c-0.1-0.1-0.1-0.1-0.3,0l-0.8,0.4
			C25.9,9.9,25.9,10,26,10c0.3,0.3,0.6,0.7,0.9,1c-1.1,0.1-2.4,0.2-3.7,0.3c0.4-0.8,0.8-1.5,1.1-2.3H28c1.1,0,1.5,0,1.6,0
			c0.1,0,0.1,0,0.1-0.1V8.1C29.7,8,29.7,8,29.6,8z M25.4,2.6c0,0,0.1-0.1,0.2-0.1c0.1,0,0.1-0.1,0.1-0.2c0-0.1-0.1-0.1-0.2-0.2
			C25.1,2,24.6,2,24.2,1.9c-0.1,0.3-0.2,0.5-0.4,0.8c-1,1.4-2.5,2.7-4.6,3.5c0.2,0.2,0.4,0.5,0.5,0.8c0.1,0.2,0.1,0.3,0.2,0.3
			c0.1,0,0.1,0,0.3-0.1c0.8-0.4,1.5-0.8,2.2-1.3v0.9c0,0.1,0,0.1,0.1,0.1c0.1,0,0.4,0,1.4,0h1.8c1,0,1.3,0,1.4,0
			c0.1,0,0.1,0,0.1-0.1V5.9c0.7,0.5,1.5,0.9,2.3,1.3c0.1,0.1,0.2,0.1,0.3,0.1c0.1,0,0.1-0.1,0.2-0.3c0.1-0.3,0.3-0.6,0.5-0.9
			C28.4,5.3,26.7,4.3,25.4,2.6z M25.7,5.8h-1.8c-0.9,0-1.2,0-1.3,0c0.8-0.6,1.6-1.4,2.2-2.2c0.6,0.8,1.4,1.6,2.3,2.2
			C26.8,5.8,26.5,5.8,25.7,5.8z M33.1,4.9c0,0.1,0,0.1,0.1,0.1c0.1,0,0.5,0,1.6,0h3.4c1.1,0,1.5,0,1.6,0c0.1,0,0.1,0,0.1-0.1
			c0-0.1,0-0.3,0-0.8V3.4c0-0.5,0-0.7,0-0.8c0-0.1,0-0.1-0.1-0.1c-0.1,0-0.5,0-1.6,0h-3.4c-1.1,0-1.5,0-1.6,0c-0.1,0-0.1,0-0.1,0.1
			c0,0.1,0,0.3,0,0.8v0.8C33.1,4.7,33.1,4.9,33.1,4.9z M34.4,3.4h4.4v0.8h-4.4V3.4z M35.5,11.4c-0.2-0.2-0.5-0.4-0.9-0.5h4.3
			c1.2,0,1.6,0,1.7,0c0.1,0,0.1,0,0.1-0.1c0-0.1,0-0.4,0-1.3V7c0-0.8,0-1.2,0-1.3c0-0.1,0-0.1-0.1-0.1c-0.1,0-0.5,0-1.7,0h-4.6
			c-1.2,0-1.6,0-1.7,0c-0.1,0-0.1,0-0.1,0.1c0,0.1,0,0.4,0,1.3v2.5c0,0.8,0,1.2,0,1.3c0,0.1,0,0.1,0.1,0.1c0.1,0,0.5,0,1.7,0h0.3
			c-0.2,0.2-0.4,0.3-0.6,0.4c-0.6,0.3-1.6,0.6-2.7,0.7c0.2,0.2,0.4,0.5,0.6,0.8c0.1,0.2,0.2,0.3,0.3,0.3c0.1,0,0.1,0,0.3,0
			c1-0.2,2.1-0.7,2.7-1c0.2-0.1,0.3-0.2,0.5-0.2c0.1,0,0.2-0.1,0.2-0.2C35.7,11.6,35.6,11.5,35.5,11.4z M33.7,6.6h5.7v0.6h-5.7V6.6z
			 M33.7,8h5.7v0.6h-5.7V8z M33.7,10V9.4h5.7V10H33.7z M38.5,10.9c0,0-0.1,0-0.2,0.1l-0.7,0.5c-0.1,0-0.1,0.1-0.1,0.1s0,0.1,0.1,0.1
			c0.9,0.6,2,1.1,3.2,1.3c0.1,0,0.2,0,0.3,0c0.1,0,0.2-0.1,0.3-0.3c0.2-0.3,0.4-0.5,0.6-0.7C40.6,11.8,39.4,11.5,38.5,10.9
			C38.5,10.9,38.5,10.9,38.5,10.9z M53.5,11.6c-0.1,0-0.4,0-1.5,0h-1.6l0.4-0.6c0.1-0.2,0.1-0.2,0.2-0.3c0.1,0,0.1-0.1,0.1-0.2
			c0,0,0-0.1-0.2-0.2c-0.3-0.1-0.7-0.2-1.1-0.3H50c1.1,0,1.5,0,1.6,0c0.1,0,0.1,0,0.1-0.1c0-0.1,0-0.3,0-0.9V8.2c0-0.6,0-0.8,0-0.9
			c0-0.1,0-0.1-0.1-0.1c-0.1,0-0.5,0-1.6,0h-3.3c-1.1,0-1.5,0-1.6,0c-0.1,0-0.1,0-0.1,0.1c0,0.1,0,0.3,0,0.9v0.9c0,0.6,0,0.8,0,0.9
			c0,0.1,0,0.1,0.1,0.1c0.1,0,0.5,0,1.6,0h3c0,0.2-0.1,0.5-0.2,0.7c-0.1,0.3-0.3,0.6-0.5,0.9h-2.3l0.6-0.3c0.2-0.1,0.2-0.1,0.1-0.2
			c-0.2-0.3-0.3-0.6-0.5-0.9c-0.1-0.1-0.1-0.1-0.3-0.1l-0.8,0.3c-0.1,0-0.2,0.1-0.1,0.2c0.2,0.3,0.4,0.6,0.5,1h-1.5
			c-1.1,0-1.5,0-1.5,0c-0.1,0-0.1,0-0.1,0.1v0.9c0,0.1,0,0.1,0.1,0.1c0.1,0,0.4,0,1.5,0H52c1.1,0,1.5,0,1.5,0c0.1,0,0.1,0,0.1-0.1
			v-0.9C53.6,11.6,53.6,11.6,53.5,11.6z M46.2,9.1V8.2h4.3v0.9H46.2z M52.9,4.9c0.2-0.2,0.3-0.3,0.4-0.3c0.1,0,0.2-0.1,0.2-0.2
			c0-0.1,0-0.1-0.1-0.2C53,4,52.7,3.8,52.4,3.6C52.2,3.8,52.1,4,52,4.1c-0.3,0.3-0.6,0.6-1,1c-0.2-0.2-0.5-0.3-0.7-0.5
			c0.3-0.3,0.6-0.5,0.8-0.8c0.2-0.2,0.3-0.3,0.4-0.3c0.1,0,0.2-0.1,0.2-0.2c0-0.1,0-0.1-0.1-0.2c-0.2-0.1-0.6-0.4-0.9-0.6
			c-0.1,0.2-0.2,0.4-0.3,0.5c-0.2,0.3-0.4,0.5-0.7,0.8c-0.1-0.1-0.1-0.1-0.2-0.2c-0.2-0.3-0.4-0.7-0.6-1c-0.1-0.1-0.1-0.1-0.2-0.1
			c-0.1,0-0.4,0-1.1,0h-1.7c-0.9,0-1.2,0-1.3,0c-0.1,0-0.1,0-0.1,0.1v0.8c0,0.1,0,0.1,0.1,0.1c0.1,0,0.4,0,1.3,0h1.3
			c-0.4,0.5-0.8,1-1.3,1.4c-0.4-0.4-0.8-0.8-1.3-1.2c-0.1-0.1-0.1-0.1-0.2,0l-0.6,0.5c-0.1,0-0.1,0.1-0.1,0.1c0,0,0,0.1,0.1,0.1
			c0.4,0.3,0.8,0.7,1.2,1.1c-0.7,0.4-1.4,0.8-2.3,1.2c0.2,0.2,0.4,0.4,0.5,0.7c0.1,0.2,0.2,0.3,0.3,0.3c0.1,0,0.1,0,0.3-0.1
			c1-0.5,1.9-1,2.7-1.7v0.6c0,0.1,0,0.1,0.1,0.1c0.1,0,0.3,0,1.2,0h1.2c0.9,0,1.1,0,1.2,0c0.1,0,0.1,0,0.1-0.1V5.9
			C51,6.5,51.9,7,53,7.5c0.1,0.1,0.2,0.1,0.3,0.1c0.1,0,0.1-0.1,0.2-0.3C53.7,7,53.8,6.8,54,6.5c-0.7-0.2-1.4-0.5-2-0.8
			C52.3,5.4,52.6,5.1,52.9,4.9z M48.9,5.6h-1.2c-0.5,0-0.8,0-1,0c0.6-0.5,1.1-1.2,1.6-1.9c0.4,0.7,0.9,1.3,1.5,1.9
			C49.7,5.6,49.4,5.6,48.9,5.6z M59.4,8.7c-0.2-0.1-0.6-0.2-0.9-0.3c0,0.2,0,0.3,0,0.4c-0.1,0.5-0.3,0.9-0.4,1.4
			c0.2,0,0.3,0.1,0.4,0.1c0.1,0.1,0.2,0.1,0.3,0.1c0.1,0,0.1-0.1,0.2-0.3c0.2-0.4,0.3-0.7,0.4-1c0-0.1,0.1-0.2,0.2-0.3
			c0,0,0.1-0.1,0.1-0.1C59.5,8.8,59.4,8.7,59.4,8.7z M64.1,9.6c0.4-0.4,0.7-0.7,1-1c0.1-0.2,0.2-0.3,0.3-0.3
			c0.1-0.1,0.2-0.1,0.2-0.2c0-0.1,0-0.1-0.1-0.2c-0.3-0.2-0.5-0.4-0.8-0.6c-0.1,0.2-0.2,0.3-0.3,0.5c-0.3,0.4-0.6,0.7-0.9,1
			c-0.3-0.5-0.5-1.1-0.6-1.7H64c1.1,0,1.5,0,1.6,0c0.1,0,0.1,0,0.1-0.1V6.2c0-0.1,0-0.1-0.1-0.1c-0.1,0-0.4,0-1.2,0l0.1-2.4
			c0-0.3,0-0.6,0.1-1c0-0.1,0-0.1-0.1-0.1c-0.1,0-0.4,0-1.3,0h-1.9c-0.9,0-1.3,0-1.3,0c-0.1,0-0.1,0-0.1,0.1v0.8
			c0,0.1,0,0.1,0.1,0.1c0.1,0,0.4,0,1.3,0h2.2l0,0.7h-1.8c-1,0-1.3,0-1.4,0c-0.1,0-0.1,0-0.1,0.1v0.8c0,0.1,0,0.1,0.1,0.1
			c0.1,0,0.4,0,1.4,0h1.8l0,0.7h-2.3c-1.1,0-1.5,0-1.6,0c-0.1,0-0.1,0-0.1,0.1V7h-0.1c-0.1,0-0.3,0-1.2,0h-0.1V6.1c0.7,0,0.9,0,1,0
			c0.1,0,0.1,0,0.1-0.1V5.3c0-0.1,0-0.1-0.1-0.1c-0.1,0-0.3,0-1,0h-1c-0.4,0-0.6,0-0.8,0c0.5-0.5,1-1.1,1.4-1.6
			c0.3,0.5,0.8,0.9,1.3,1.4C58.8,5,58.8,5,58.9,5C59,5,59,4.9,59.1,4.8c0.1-0.2,0.3-0.5,0.5-0.6c-0.7-0.5-1.2-0.9-1.7-1.5L58,2.6
			c0.1-0.1,0.1-0.1,0.1-0.2c0,0-0.1-0.1-0.2-0.1c-0.3-0.1-0.7-0.2-1.1-0.2c0,0.2-0.1,0.4-0.3,0.6c-0.4,0.7-1.1,1.4-1.9,2.1
			C54.7,5,54.9,5.3,55,5.6c0.1,0.2,0.1,0.3,0.2,0.3c0.1,0,0.1,0,0.3-0.1c0.1-0.1,0.2-0.2,0.3-0.2V6c0,0.1,0,0.1,0.1,0.1
			c0.1,0,0.3,0,0.9,0v0.9h-0.3c-0.9,0-1.2,0-1.2,0c-0.1,0-0.1,0-0.1,0.1V8c0,0.1,0,0.1,0.1,0.1c0.1,0,0.3,0,1.2,0h0.3v3.3
			c-0.3,0.1-0.6,0.1-0.8,0.2c-0.3,0.1-0.6,0.1-1.1,0.1c0.1,0.3,0.2,0.7,0.3,1c0,0.1,0.1,0.2,0.2,0.2c0.1,0,0.1,0,0.2-0.1
			c0.1,0,0.2-0.1,0.4-0.2c1-0.2,1.9-0.5,2.8-0.7c0.3-0.1,0.3-0.1,0.4-0.5c0-0.1,0-0.1,0-0.2c0.2,0.3,0.3,0.6,0.5,0.8
			c0.1,0.1,0.1,0.1,0.2,0.1c0,0,0.1,0,0.1-0.1c0-0.1,0.2-0.2,0.3-0.3c0.5-0.3,1.1-0.7,1.7-1.2v0.9c0,0.3-0.1,0.4-0.5,0.4
			c-0.3,0-0.5,0-0.8,0c0.2,0.3,0.3,0.5,0.4,0.9c0.1,0.4,0.1,0.4,0.5,0.4c0.7,0,1-0.1,1.2-0.2c0.3-0.2,0.4-0.6,0.4-1
			c0-0.6-0.1-1.2-0.1-2.6c0.4,1.2,1.1,2.2,2.1,3c0.1,0.1,0.2,0.1,0.2,0.1c0.1,0,0.1-0.1,0.2-0.2c0.1-0.3,0.3-0.6,0.5-0.8
			C65.2,10.8,64.6,10.3,64.1,9.6z M61.8,9.3c-0.7,0.6-1.5,1.1-2.2,1.5L59,11c0-0.1,0-0.2,0-0.3c-0.4,0.1-0.9,0.3-1.3,0.4v-3h0.1
			c0.9,0,1.2,0,1.2,0c0.1,0,0.1,0,0.1-0.1V7.1h0.1c0.1,0,0.4,0,1.6,0h0.9V9.3z M60.3,7.3c0,0-0.1,0-0.1,0.1l-0.5,0.4
			C59.5,7.9,59.5,8,59.6,8c0.4,0.4,0.7,0.9,0.9,1.3c0,0.1,0.1,0.1,0.1,0.1s0.1,0,0.1-0.1L61.3,9c0.1-0.1,0.1-0.1,0.1-0.2
			c-0.3-0.5-0.6-0.9-0.9-1.3C60.3,7.4,60.3,7.3,60.3,7.3z M55.7,10.9l0.5-0.2c0.1-0.1,0.2-0.1,0.1-0.2c-0.1-0.6-0.2-1.3-0.4-1.8
			c0-0.1-0.1-0.1-0.2-0.1l-0.5,0.2c-0.2,0.1-0.2,0.1-0.1,0.2c0.2,0.6,0.3,1.2,0.4,1.8C55.5,10.9,55.6,10.9,55.7,10.9z"/>
	</g>
</g>
</svg>
